<?xml version="1.0" encoding="UTF-8"?>
<svg width="700pt" height="700pt" version="1.1" viewBox="0 0 700 700" xmlns="http://www.w3.org/2000/svg" xmlns:xlink="http://www.w3.org/1999/xlink">
 <defs>
  <symbol id="v" overflow="visible">
   <path d="m18.766-1.125c-0.96875 0.5-1.9805 0.875-3.0312 1.125-1.043 0.25781-2.1367 0.39062-3.2812 0.39062-3.3984 0-6.0898-0.94531-8.0781-2.8438-1.9922-1.9062-2.9844-4.4844-2.9844-7.7344 0-3.2578 0.99219-5.8359 2.9844-7.7344 1.9883-1.9062 4.6797-2.8594 8.0781-2.8594 1.1445 0 2.2383 0.13281 3.2812 0.39062 1.0508 0.25 2.0625 0.625 3.0312 1.125v4.2188c-0.98047-0.65625-1.9453-1.1406-2.8906-1.4531-0.94922-0.3125-1.9492-0.46875-3-0.46875-1.875 0-3.3516 0.60547-4.4219 1.8125-1.0742 1.1992-1.6094 2.8555-1.6094 4.9688 0 2.1055 0.53516 3.7617 1.6094 4.9688 1.0703 1.1992 2.5469 1.7969 4.4219 1.7969 1.0508 0 2.0508-0.14844 3-0.45312 0.94531-0.3125 1.9102-0.80078 2.8906-1.4688z"/>
  </symbol>
  <symbol id="c" overflow="visible">
   <path d="m13.734-11.141c-0.4375-0.19531-0.87109-0.34375-1.2969-0.4375-0.41797-0.10156-0.83984-0.15625-1.2656-0.15625-1.2617 0-2.2305 0.40625-2.9062 1.2188-0.67969 0.80469-1.0156 1.9531-1.0156 3.4531v7.0625h-4.8906v-15.312h4.8906v2.5156c0.625-1 1.3438-1.7266 2.1562-2.1875 0.82031-0.46875 1.8008-0.70312 2.9375-0.70312 0.16406 0 0.34375 0.011719 0.53125 0.03125 0.19531 0.011719 0.47656 0.039062 0.84375 0.078125z"/>
  </symbol>
  <symbol id="a" overflow="visible">
   <path d="m17.641-7.7031v1.4062h-11.453c0.125 1.1484 0.53906 2.0078 1.25 2.5781 0.70703 0.57422 1.7031 0.85938 2.9844 0.85938 1.0312 0 2.082-0.14844 3.1562-0.45312 1.082-0.3125 2.1914-0.77344 3.3281-1.3906v3.7656c-1.1562 0.4375-2.3125 0.76562-3.4688 0.98438-1.1562 0.22656-2.3125 0.34375-3.4688 0.34375-2.7734 0-4.9297-0.70312-6.4688-2.1094-1.5312-1.4062-2.2969-3.3789-2.2969-5.9219 0-2.5 0.75391-4.4609 2.2656-5.8906 1.5078-1.4375 3.582-2.1562 6.2188-2.1562 2.4062 0 4.332 0.73047 5.7812 2.1875 1.4453 1.4492 2.1719 3.3828 2.1719 5.7969zm-5.0312-1.625c0-0.92578-0.27344-1.6719-0.8125-2.2344-0.54297-0.57031-1.25-0.85938-2.125-0.85938-0.94922 0-1.7188 0.26562-2.3125 0.79688s-0.96484 1.2969-1.1094 2.2969z"/>
  </symbol>
  <symbol id="d" overflow="visible">
   <path d="m9.2188-6.8906c-1.0234 0-1.793 0.17188-2.3125 0.51562-0.51172 0.34375-0.76562 0.85547-0.76562 1.5312 0 0.625 0.20703 1.1172 0.625 1.4688 0.41406 0.34375 0.98828 0.51562 1.7188 0.51562 0.92578 0 1.7031-0.32812 2.3281-0.98438 0.63281-0.66406 0.95312-1.4922 0.95312-2.4844v-0.5625zm7.4688-1.8438v8.7344h-4.9219v-2.2656c-0.65625 0.92969-1.3984 1.6055-2.2188 2.0312-0.82422 0.41406-1.8242 0.625-3 0.625-1.5859 0-2.8711-0.45703-3.8594-1.375-0.99219-0.92578-1.4844-2.1289-1.4844-3.6094 0-1.7891 0.61328-3.1016 1.8438-3.9375 1.2383-0.84375 3.1797-1.2656 5.8281-1.2656h2.8906v-0.39062c0-0.76953-0.30859-1.332-0.92188-1.6875-0.61719-0.36328-1.5703-0.54688-2.8594-0.54688-1.0547 0-2.0312 0.10547-2.9375 0.3125-0.89844 0.21094-1.7305 0.52344-2.5 0.9375v-3.7344c1.0391-0.25 2.0859-0.44141 3.1406-0.57812 1.0625-0.13281 2.125-0.20312 3.1875-0.20312 2.7578 0 4.75 0.54688 5.9688 1.6406 1.2266 1.0859 1.8438 2.8555 1.8438 5.3125z"/>
  </symbol>
  <symbol id="b" overflow="visible">
   <path d="m7.7031-19.656v4.3438h5.0469v3.5h-5.0469v6.5c0 0.71094 0.14062 1.1875 0.42188 1.4375s0.83594 0.375 1.6719 0.375h2.5156v3.5h-4.1875c-1.9375 0-3.3125-0.39844-4.125-1.2031-0.80469-0.8125-1.2031-2.1797-1.2031-4.1094v-6.5h-2.4219v-3.5h2.4219v-4.3438z"/>
  </symbol>
  <symbol id="l" overflow="visible">
   <path d="m12.766-13.078v-8.2031h4.9219v21.281h-4.9219v-2.2188c-0.66797 0.90625-1.4062 1.5703-2.2188 1.9844s-1.7578 0.625-2.8281 0.625c-1.8867 0-3.4336-0.75-4.6406-2.25-1.2109-1.5-1.8125-3.4258-1.8125-5.7812 0-2.3633 0.60156-4.2969 1.8125-5.7969 1.207-1.5 2.7539-2.25 4.6406-2.25 1.0625 0 2 0.21484 2.8125 0.64062 0.82031 0.42969 1.5664 1.0859 2.2344 1.9688zm-3.2188 9.9219c1.0391 0 1.8359-0.37891 2.3906-1.1406 0.55078-0.76953 0.82812-1.8828 0.82812-3.3438 0-1.457-0.27734-2.5664-0.82812-3.3281-0.55469-0.76953-1.3516-1.1562-2.3906-1.1562-1.043 0-1.8398 0.38672-2.3906 1.1562-0.55469 0.76172-0.82812 1.8711-0.82812 3.3281 0 1.4609 0.27344 2.5742 0.82812 3.3438 0.55078 0.76172 1.3477 1.1406 2.3906 1.1406z"/>
  </symbol>
  <symbol id="k" overflow="visible">
   <path d="m10.5-3.1562c1.0508 0 1.8516-0.37891 2.4062-1.1406 0.55078-0.76953 0.82812-1.8828 0.82812-3.3438 0-1.457-0.27734-2.5664-0.82812-3.3281-0.55469-0.76953-1.3555-1.1562-2.4062-1.1562-1.0547 0-1.8594 0.38672-2.4219 1.1562-0.55469 0.77344-0.82812 1.8828-0.82812 3.3281 0 1.4492 0.27344 2.5586 0.82812 3.3281 0.5625 0.77344 1.3672 1.1562 2.4219 1.1562zm-3.25-9.9219c0.67578-0.88281 1.4219-1.5391 2.2344-1.9688 0.82031-0.42578 1.7656-0.64062 2.8281-0.64062 1.8945 0 3.4453 0.75 4.6562 2.25 1.207 1.5 1.8125 3.4336 1.8125 5.7969 0 2.3555-0.60547 4.2812-1.8125 5.7812-1.2109 1.5-2.7617 2.25-4.6562 2.25-1.0625 0-2.0078-0.21094-2.8281-0.625-0.8125-0.42578-1.5586-1.0859-2.2344-1.9844v2.2188h-4.8906v-21.281h4.8906z"/>
  </symbol>
  <symbol id="j" overflow="visible">
   <path d="m0.34375-15.312h4.8906l4.125 10.391 3.5-10.391h4.8906l-6.4375 16.766c-0.64844 1.6953-1.4023 2.8828-2.2656 3.5625-0.86719 0.6875-2 1.0312-3.4062 1.0312h-2.8438v-3.2188h1.5312c0.83203 0 1.4375-0.13672 1.8125-0.40625 0.38281-0.26172 0.67969-0.73047 0.89062-1.4062l0.14062-0.42188z"/>
  </symbol>
  <symbol id="f" overflow="visible">
   <path d="m14.312-14.828v3.7188c-1.043-0.4375-2.0547-0.76562-3.0312-0.98438-0.98047-0.21875-1.9023-0.32812-2.7656-0.32812-0.92969 0-1.6211 0.11719-2.0781 0.34375-0.44922 0.23047-0.67188 0.58984-0.67188 1.0781 0 0.38672 0.17188 0.68359 0.51562 0.89062 0.34375 0.21094 0.95703 0.36719 1.8438 0.46875l0.85938 0.125c2.5078 0.32422 4.1953 0.85156 5.0625 1.5781 0.86328 0.73047 1.2969 1.8711 1.2969 3.4219 0 1.6367-0.60547 2.8672-1.8125 3.6875-1.1992 0.8125-2.9922 1.2188-5.375 1.2188-1.0234 0-2.0742-0.078125-3.1562-0.23438-1.0742-0.15625-2.1797-0.39453-3.3125-0.71875v-3.7188c0.96875 0.48047 1.9609 0.83984 2.9844 1.0781 1.0312 0.23047 2.0781 0.34375 3.1406 0.34375 0.95703 0 1.6758-0.12891 2.1562-0.39062 0.47656-0.26953 0.71875-0.66406 0.71875-1.1875 0-0.4375-0.16797-0.75781-0.5-0.96875-0.33594-0.21875-0.99609-0.38281-1.9844-0.5l-0.85938-0.10938c-2.1797-0.26953-3.7031-0.77344-4.5781-1.5156-0.875-0.73828-1.3125-1.8594-1.3125-3.3594 0-1.625 0.55078-2.8281 1.6562-3.6094 1.1133-0.78906 2.8203-1.1875 5.125-1.1875 0.89453 0 1.8359 0.074219 2.8281 0.21875 1 0.13672 2.082 0.35156 3.25 0.64062z"/>
  </symbol>
  <symbol id="u" overflow="visible">
   <path d="m7.25-2.2188v8.0469h-4.8906v-21.141h4.8906v2.2344c0.67578-0.88281 1.4219-1.5391 2.2344-1.9688 0.82031-0.42578 1.7656-0.64062 2.8281-0.64062 1.8945 0 3.4453 0.75 4.6562 2.25 1.207 1.5 1.8125 3.4336 1.8125 5.7969 0 2.3555-0.60547 4.2812-1.8125 5.7812-1.2109 1.5-2.7617 2.25-4.6562 2.25-1.0625 0-2.0078-0.21094-2.8281-0.625-0.8125-0.42578-1.5586-1.0859-2.2344-1.9844zm3.25-9.9062c-1.0547 0-1.8594 0.38672-2.4219 1.1562-0.55469 0.77344-0.82812 1.8828-0.82812 3.3281 0 1.4492 0.27344 2.5586 0.82812 3.3281 0.5625 0.77344 1.3672 1.1562 2.4219 1.1562 1.0508 0 1.8516-0.37891 2.4062-1.1406 0.55078-0.76953 0.82812-1.8828 0.82812-3.3438 0-1.457-0.27734-2.5664-0.82812-3.3281-0.55469-0.76953-1.3555-1.1562-2.4062-1.1562z"/>
  </symbol>
  <symbol id="i" overflow="visible">
   <path d="m17.75-9.3281v9.3281h-4.9219v-7.1094c0-1.3438-0.03125-2.2656-0.09375-2.7656s-0.16797-0.86719-0.3125-1.1094c-0.1875-0.3125-0.44922-0.55469-0.78125-0.73438-0.32422-0.17578-0.69531-0.26562-1.1094-0.26562-1.0234 0-1.8242 0.39844-2.4062 1.1875-0.58594 0.78125-0.875 1.8711-0.875 3.2656v7.5312h-4.8906v-21.281h4.8906v8.2031c0.73828-0.88281 1.5195-1.5391 2.3438-1.9688 0.83203-0.42578 1.75-0.64062 2.75-0.64062 1.7695 0 3.1133 0.54688 4.0312 1.6406 0.91406 1.0859 1.375 2.6562 1.375 4.7188z"/>
  </symbol>
  <symbol id="h" overflow="visible">
   <path d="m17.75-9.3281v9.3281h-4.9219v-7.1406c0-1.3203-0.03125-2.2344-0.09375-2.7344s-0.16797-0.86719-0.3125-1.1094c-0.1875-0.3125-0.44922-0.55469-0.78125-0.73438-0.32422-0.17578-0.69531-0.26562-1.1094-0.26562-1.0234 0-1.8242 0.39844-2.4062 1.1875-0.58594 0.78125-0.875 1.8711-0.875 3.2656v7.5312h-4.8906v-15.312h4.8906v2.2344c0.73828-0.88281 1.5195-1.5391 2.3438-1.9688 0.83203-0.42578 1.75-0.64062 2.75-0.64062 1.7695 0 3.1133 0.54688 4.0312 1.6406 0.91406 1.0859 1.375 2.6562 1.375 4.7188z"/>
  </symbol>
  <symbol id="t" overflow="visible">
   <path d="m2.3594-15.312h4.8906v15.312h-4.8906zm0-5.9688h4.8906v4h-4.8906z"/>
  </symbol>
  <symbol id="s" overflow="visible">
   <path d="m0.98438-15.312h4.7656l2.5625 10.547 2.5781-10.547h4.0938l2.5781 10.438 2.5781-10.438h4.75l-4.0312 15.312h-5.3438l-2.5781-10.531-2.5781 10.531h-5.3438z"/>
  </symbol>
  <symbol id="g" overflow="visible">
   <path d="m2.1875-5.9688v-9.3438h4.9219v1.5312c0 0.83594-0.007813 1.875-0.015625 3.125-0.011719 1.25-0.015625 2.0859-0.015625 2.5 0 1.2422 0.03125 2.1328 0.09375 2.6719 0.070313 0.54297 0.17969 0.93359 0.32812 1.1719 0.20703 0.32422 0.47266 0.57422 0.79688 0.75 0.32031 0.16797 0.69141 0.25 1.1094 0.25 1.0195 0 1.8203-0.39062 2.4062-1.1719 0.58203-0.78125 0.875-1.8672 0.875-3.2656v-7.5625h4.8906v15.312h-4.8906v-2.2188c-0.74219 0.89844-1.5234 1.5586-2.3438 1.9844-0.82422 0.41406-1.7344 0.625-2.7344 0.625-1.7617 0-3.1055-0.53906-4.0312-1.625-0.92969-1.082-1.3906-2.6602-1.3906-4.7344z"/>
  </symbol>
  <symbol id="r" overflow="visible">
   <path d="m12.422-21.281v3.2188h-2.7031c-0.6875 0-1.1719 0.125-1.4531 0.375-0.27344 0.25-0.40625 0.6875-0.40625 1.3125v1.0625h4.1875v3.5h-4.1875v11.812h-4.8906v-11.812h-2.4375v-3.5h2.4375v-1.0625c0-1.6641 0.46094-2.8984 1.3906-3.7031 0.92578-0.80078 2.3672-1.2031 4.3281-1.2031z"/>
  </symbol>
  <symbol id="e" overflow="visible">
   <path d="m9.6406-12.188c-1.0859 0-1.9141 0.39062-2.4844 1.1719-0.57422 0.78125-0.85938 1.9062-0.85938 3.375s0.28516 2.5938 0.85938 3.375c0.57031 0.77344 1.3984 1.1562 2.4844 1.1562 1.0625 0 1.875-0.38281 2.4375-1.1562 0.57031-0.78125 0.85938-1.9062 0.85938-3.375s-0.28906-2.5938-0.85938-3.375c-0.5625-0.78125-1.375-1.1719-2.4375-1.1719zm0-3.5c2.6328 0 4.6914 0.71484 6.1719 2.1406 1.4766 1.418 2.2188 3.3867 2.2188 5.9062 0 2.5117-0.74219 4.4805-2.2188 5.9062-1.4805 1.418-3.5391 2.125-6.1719 2.125-2.6484 0-4.7148-0.70703-6.2031-2.125-1.4922-1.4258-2.2344-3.3945-2.2344-5.9062 0-2.5195 0.74219-4.4883 2.2344-5.9062 1.4883-1.4258 3.5547-2.1406 6.2031-2.1406z"/>
  </symbol>
  <symbol id="q" overflow="visible">
   <path d="m16.547-12.766c0.61328-0.94531 1.3477-1.6719 2.2031-2.1719 0.85156-0.5 1.7891-0.75 2.8125-0.75 1.7578 0 3.0977 0.54688 4.0156 1.6406 0.92578 1.0859 1.3906 2.6562 1.3906 4.7188v9.3281h-4.9219v-7.9844-0.35938c0.007813-0.13281 0.015625-0.32031 0.015625-0.5625 0-1.082-0.16406-1.8633-0.48438-2.3438-0.3125-0.48828-0.82422-0.73438-1.5312-0.73438-0.92969 0-1.6484 0.38672-2.1562 1.1562-0.51172 0.76172-0.77344 1.8672-0.78125 3.3125v7.5156h-4.9219v-7.9844c0-1.6953-0.14844-2.7852-0.4375-3.2656-0.29297-0.48828-0.8125-0.73438-1.5625-0.73438-0.9375 0-1.6641 0.38672-2.1719 1.1562-0.51172 0.76172-0.76562 1.8594-0.76562 3.2969v7.5312h-4.9219v-15.312h4.9219v2.2344c0.60156-0.86328 1.2891-1.5156 2.0625-1.9531 0.78125-0.4375 1.6406-0.65625 2.5781-0.65625 1.0625 0 2 0.25781 2.8125 0.76562 0.8125 0.51172 1.4258 1.2305 1.8438 2.1562z"/>
  </symbol>
  <symbol id="p" overflow="visible">
   <path d="m2.5781-20.406h5.875l7.4219 14v-14h4.9844v20.406h-5.875l-7.4219-14v14h-4.9844z"/>
  </symbol>
  <symbol id="o" overflow="visible">
   <path d="m2.5781-20.406h8.7344c2.5938 0 4.582 0.57812 5.9688 1.7344 1.3945 1.1484 2.0938 2.7891 2.0938 4.9219 0 2.1367-0.69922 3.7812-2.0938 4.9375-1.3867 1.1562-3.375 1.7344-5.9688 1.7344h-3.4844v7.0781h-5.25zm5.25 3.8125v5.7031h2.9219c1.0195 0 1.8047-0.25 2.3594-0.75 0.5625-0.5 0.84375-1.2031 0.84375-2.1094 0-0.91406-0.28125-1.6172-0.84375-2.1094-0.55469-0.48828-1.3398-0.73438-2.3594-0.73438z"/>
  </symbol>
  <symbol id="n" overflow="visible">
   <path d="m2.3594-15.312h4.8906v15.031c0 2.0508-0.49609 3.6172-1.4844 4.7031-0.98047 1.082-2.4062 1.625-4.2812 1.625h-2.4219v-3.2188h0.85938c0.92578 0 1.5625-0.21094 1.9062-0.625 0.35156-0.41797 0.53125-1.2461 0.53125-2.4844zm0-5.9688h4.8906v4h-4.8906z"/>
  </symbol>
  <symbol id="m" overflow="visible">
   <path d="m14.719-14.828v3.9844c-0.65625-0.45703-1.3242-0.79688-2-1.0156-0.66797-0.21875-1.3594-0.32812-2.0781-0.32812-1.3672 0-2.4336 0.40234-3.2031 1.2031-0.76172 0.79297-1.1406 1.9062-1.1406 3.3438 0 1.4297 0.37891 2.543 1.1406 3.3438 0.76953 0.79297 1.8359 1.1875 3.2031 1.1875 0.75781 0 1.4844-0.10938 2.1719-0.32812 0.6875-0.22656 1.3203-0.56641 1.9062-1.0156v4c-0.76172 0.28125-1.5391 0.48828-2.3281 0.625-0.78125 0.14453-1.5742 0.21875-2.375 0.21875-2.7617 0-4.9219-0.70703-6.4844-2.125-1.5547-1.4141-2.3281-3.3828-2.3281-5.9062 0-2.5312 0.77344-4.5039 2.3281-5.9219 1.5625-1.4141 3.7227-2.125 6.4844-2.125 0.80078 0 1.5938 0.074219 2.375 0.21875 0.78125 0.13672 1.5547 0.35156 2.3281 0.64062z"/>
  </symbol>
 </defs>
 <g>
  <path d="m346.93 204.84 0.51172 0.35547 0.070313 0.40625 0.46484 0.28516-0.26562 0.35938-0.15234 0.35937 0.074218 0.55469 0.28516 0.39062 0.23828-0.39062 0.48828-0.38281 0.68359 0.11719 0.050781 0.41406-0.20703 0.69141 0.078125 0.42578 0.078125 0.54297-0.10547 0.69922 0.10156 0.61719 0.39062-0.070312 0.65625-0.085938 0.54688-0.10156 0.74609-0.11719 0.72656-0.20703 0.046875 0.30469-0.046875 0.33203-0.12109 0.68359 0.16797 0.41406 0.50781-0.15625 0.82422 0.078125 0.027344 0.44922-0.023437 0.55469 0.085937 0.51172-0.38281 0.375-0.55859 0.64062-0.42969 0.054687-0.78125-0.1875-0.42969-0.050781-0.46484 0.050781 0.34766 0.83984 0.12891 0.66016-0.066406 0.3125-0.41016 0.41406 0.26953 0.27344 0.45312-0.078125 0.39844 0.49219-0.17969 0.35938-0.38281 0.28516-0.48438 0.5-0.67578 0.45312-0.066407 0.32031 0.066407 0.54687 0.29687 0.51563 0.46094 0.12891 0.039062-0.45312 0.60938-0.3125 0.5625 0.6875 0.55469-0.085938 0.49219-0.17188 0.40625-0.17969 0.5-0.17969 0.77344-0.10547 0.082031 0.51563-0.27344 0.375-0.73828 0.13281-0.45312 0.050781-0.61719 0.19141-0.4375 0.10156-0.40234 0.10547-0.48828 0.44141-0.23828 0.47656-0.25781 0.48047-0.14844 0.55469-0.17188 0.375-0.375 0.39453-0.39062 0.23828-0.019532 0.69141 0.19531 0.40234 0.92969-0.24219 0.1875-0.35547 0.23047-0.72266 0.23438-0.35547 0.42578-0.15625 0.60156 0.23047 0.30859-0.054688 0.42578-0.050781 0.53906-0.078125 0.078124-0.69531 0.30859-0.24219 0.90234 0.035156 0.55859 0.066406 0.4375-0.066406 0.36328-0.39844 0.47656-0.50391 0.30859-0.17969 0.42578-0.042969 0.54688 0.027344 0.33203-0.027344 0.28906-0.0625 0.95312 0.074219 0.61719-0.074219 0.41797-0.074218 0.39453-0.40625 0.53125-0.078126 0.48438-0.29297 0.27734-0.26953 0.039063-0.45703-0.24609-0.26953-0.53125 0.078125-0.48828-0.14062 0.015625-0.55859 0.078125-0.34766v-0.54297l0.37109-0.050781 0.4375-0.074219 0.36328-0.17188 0.32422-0.28516 0.15234-0.43359 0.054687-0.32422-0.039063-0.30859 0.054688-1.1289-0.63672-0.45313-0.53125-0.011718-0.61719 0.054687-0.39844 0.41016-0.38672 0.62109-0.27734-0.32031-0.45703-0.35156 0.035157-0.66016-0.14062-0.76172-0.53125-0.44531 0.63672-0.17188-0.29687-0.54297-0.35547-0.15625-0.375-0.28516-0.55078-0.027344-0.17188-0.41016-0.28516-0.38672-1.1211-0.89453-0.76953-0.019531-0.25-0.28516-0.18359-0.42969-0.078126-0.54297-0.25781-0.34766-0.49609-0.96484h-0.67578l-0.11719-0.28516-0.28516-0.41016-0.45312-0.042968-0.37109-0.042969-0.039062-0.46094 0.13281-0.42578-0.03125-0.89062-0.023437-0.32812 0.28125-0.25781 0.25781-0.46094 0.40625-0.26953-0.10547-0.53125 0.015625-0.23047 0.019531-0.44141-0.027344-0.20703-0.035156-0.12891-0.3125-0.58984-0.53906-0.039063-0.45312 0.058594-0.3125 0.039062-0.80859 0.35156-0.4375 0.066406-0.62109 0.097657-0.46875-0.035157-0.078125-0.53906 0.015625-0.66016 0.5-0.27734-0.070312-0.42578 0.58594-0.46094 0.046875-0.96094-0.097656-0.32812-0.57422-0.13281-0.66406 0.21875-0.5625 0.49609-0.30078 0.035156-0.29688-0.20312-0.41406 0.03125 0.078125 0.42969-0.054688 0.33594-0.36328 0.57812-0.11328 0.54297 0.09375 0.54688-0.17188 0.47266-0.51562 0.23828 0.078125 0.5-0.15625 0.34766 0.15625 0.57422 0.015625 0.039063 0.17969 0.43359-0.015625 0.16016-0.078125 0.53906z"/>
  <path d="m348.13 211.9 0.125-0.57422-0.48828-0.5-0.28516-0.25781-0.25781-0.28906-0.36328-0.27734-0.41406 0.0625-0.15234 0.54297-0.71875 0.34375 0.12109-0.31641 0.097657-0.26562-0.03125-0.43359-0.375-0.36719-0.60547 0.53125-0.52734 0.0625-0.4375-0.039062-0.17969 0.37891-0.17188 0.33984-0.050782 0.32812 0.14453 0.32422 0.078125 0.40625-0.41797 0.17578-0.35938 0.49609-0.14062 0.46094-0.54688 0.10547-0.43359 0.066406-0.39453 0.16406 0.070312 0.33203 0.039063 0.28906 0.10156 0.84766-0.83203 0.25 0.10547 0.64844 0.0625 0.42188 0.26562 0.3125 0.32422-0.050781 0.42188-0.050781 0.40234-0.30469 0.375-0.38672 0.34375 0.26562-0.27734 0.25781-0.042969 0.35938 0.042969 0.30859-0.14453 0.46484-0.18359 0.33594-0.37109 1.0625-0.3125 0.80078-0.67578 0.65234 0.39453 0.26172 0.1875 0.44141 0.32422 0.14844 0.082031 0.42578 0.29297-0.058594 0.30859-0.23438 0.49219-0.22266 0.39844 0.41797 0.47266 0.14453 0.58984-0.42969 0.33984-0.63281 0.35938-0.44922 0.33203-0.082031 0.63281-0.078125 0.050781-0.34766 0.011719-0.63672 0.44141-0.074219 0.35938-0.38672 0.13672-0.75 0.34766-0.53125-0.14844-0.32031-0.33594-0.60547-0.0625-0.63672-0.10156-0.44531 0.050781-0.40625-0.074219-0.46094 0.023438-0.53516 0.39062-0.49609 0.49219-0.31641 0.46484-0.38281-0.15625-0.30859z"/>
  <path d="m223.03 315.58-0.48828-0.47656-1.4766-0.089843-1.6875 0.15625-0.90234-0.3125-2.0586 0.75391-0.73438 0.83984-0.27344 0.30859-0.4375 0.66797-0.33594 0.6875 0.32031 0.46094 0.80078-0.22656 0.25781-0.23438 0.41797-0.90625 0.51562-0.70703 0.79688-0.35938 0.87891-0.27734 0.70312 0.56641 0.32812 0.49609 0.39062-0.26953 0.51562-0.089844 0.58203 0.34375 0.46484-0.29297 1.3047 0.98047 0.32031 0.67969 1.2344-0.21484 0.96094-0.023438 0.41797 0.57422 0.21484 0.79297 0.85547 0.12891 0.86719 0.16406 0.5 0.54688-0.25781 0.99219-0.13672 0.51562 0.4375 0.089844 1.5312-0.375 1.4766-0.62109 0.50781-0.19141 0.80859-0.015625 1.1992-0.078125-0.65234-1.3633-1.3555 0.10547-0.42969-0.19922-0.75391-1.332-0.92188 0.16016-1.1953-0.25-0.27734-0.34766-0.88281-0.34375-2.957-0.58203z"/>
  <path d="m235.25 323.51-1.082-0.035156 0.14453 0.90625 0.69141 0.33203 1.0469-0.15234 0.99609-0.12891h0.015625l0.60547-0.10547 0.55859-0.089844 1.7656 0.050781 0.28125 0.39844 0.375-0.23047 0.26562-0.55469-0.13281-0.80469 0.42188 0.17188 0.76953 0.17969 0.58594-0.20312 0.80469-0.53125 0.78906-0.23438 0.81641-0.125 0.71875-0.21875-0.81641-1.0234-1.8828-0.15625-1.2812-0.62109-1.3164-0.32031-1.7031 0.35156-1.2109 0.51562-0.17188 1.5977 0.6875 0.41016 0.13672 0.71484-0.56641 0.17188-0.35938 0.085937h-0.29297l-0.98828-0.035156z"/>
  <path d="m229.91 324.53-2.8516 0.23438-0.37891 0.89062 1.0195 0.26953 0.55859 0.24219 0.4375 0.24609 0.49609 0.34766 0.45703-0.36719 0.75391-0.45312 0.25391-0.45703-0.37891-0.5z"/>
  <path d="m353.48 99.371c-103.85 0-188.33 84.488-188.33 188.34 0 103.83 84.48 188.3 188.33 188.3 103.83 0 188.31-84.477 188.31-188.3 0-103.85-84.48-188.34-188.31-188.34zm109.48 135.03 0.14062 0.41016 0.09375 0.35156 0.26172 0.24609 0.20703-0.32031 0.53125-0.14453 0.11719-0.035156 0.39062-0.074219 0.25781 0.054688v0.015625l-0.015625 0.26953-0.24219 0.82422 0.39063 0.71875 0.30859 0.41016 0.23047 0.41016 0.074219 0.085938 0.24609 0.23047 0.15625 0.32422 0.054688 0.29688-0.19141 0.12891-0.085938 0.039063-0.17188 0.48047 0.3125 0.85156 0.035157 0.61719 0.10547 0.69922-0.054687 0.33203v0.023437l0.10547 0.72656 0.16797 0.30078 0.023438 0.37109-0.13281 0.28516-0.45312 0.089844-0.20312-0.26953-0.53906-0.10938-0.375 0.074219-0.47656 0.23438-0.41406 0.15234-0.32031 0.42578-0.375 0.32031-0.89453 0.015625-0.92578-0.37891-0.23438-0.41016-0.34766-0.11719-0.50781-0.074219-0.37109-0.24219-0.48047-0.10547-0.42187 0.10547-0.41406 0.035157-0.5-0.19141-0.37109-0.089843-0.11719-0.19531-0.12109-0.23047-0.039062-0.32031-0.027344-0.21094-0.46484-0.63281-0.24219-0.41016-0.5-0.375-0.10156-0.60547 0.20703-0.37891 0.32422-0.67578 0.066406-0.26172 0.15625-0.81641 0.10156-0.46484 0.035156-0.47656 0.27344-0.39062-0.066406-0.51562-0.11719-0.59766 0.035156-0.42578 0.53125-0.089844 0.33984-0.14453-0.14062-0.24219-0.37109-0.23047-0.35156 0.074219-0.41406-0.39062-0.35156-0.46094-0.125-0.19141-0.41016-0.58984-0.13281-0.17969-0.38672-0.21094-0.59766-0.53125-0.375-0.19141-0.32422-0.30859-0.10547-0.6875-0.47656-0.32422-0.63281-0.66797-0.50391-1.8633-0.38672-0.34766-0.11328-0.64844 0.19141-0.5-0.38672-0.29297-0.46484-0.19141-0.41016 0.20703-0.26172 0.22266-0.13281-0.39844v-0.63281l0.042969-0.87891 0.20312-1.6367 0.085938-0.64453 0.11328-0.98047 0.46094-0.40234 0.28516-0.5 0.29297 0.20703 0.58984 0.29297 0.66016-0.81641-0.34766-0.11719-0.15234-0.34766 0.67188-0.17188 0.29688 0.11328 0.46094 0.19531 0.29297-0.30859 0.050781-0.49219 0.22266-0.24609 1.1758 0.17188 0.27344-0.066406 0.41406-0.78906 0.023438-0.28125 0.19531-0.52734 0.21094-0.19141 0.50391-0.20703 0.53906-0.0625 0.23438 0.5 0.5 0.28516 0.20703 0.125h0.69922l0.61719-0.09375 0.33984 0.44922 0.41406 0.27344 0.99609 0.25781 0.80469 0.11719 0.12891 0.70703 0.24609 0.58203 0.35938 0.49219 0.37109 0.27344 0.35156 0.39844 0.054687 0.42188-0.10156 0.54688-0.39062 0.42578-0.57031 0.26172-0.58203-0.17188-0.35938-0.21875-0.46484-0.015625-0.53125-0.17188-0.30859-0.074218-0.15625-0.035157h-0.51563l-0.125-0.003906-0.22266 0.45312-0.17969 0.42578-0.8125 0.10156s-0.015625-0.066406-0.23438 0.11719l-0.24219 0.21094 0.066406 0.97266 0.51563 0.39062-0.066407 0.33984-0.87891 0.039062-1.0234 0.24219 0.28516 0.67578 0.67188 0.25781 0.67188 0.3125 0.24219 0.59766 0.24609 0.26953 0.57812 0.42578 0.50391 0.24609 0.375 0.16406h0.26172l0.53125 0.039063 0.33984-0.039063 0.54688 2.3203 0.34375 0.007813 0.3125-0.089844 0.10547-0.035156 0.25391-0.30859 0.15625-0.17188 0.11719-0.15234 0.30078 0.24219 0.37891 0.015626 0.68359 0.52734s-0.039063 0.28125 0.20312 0.50391c0.17188 0.23437 0.48828 0.55859 0.48828 0.55859l0.49219 0.19141 0.46484 0.17187-0.19531 0.48047-0.25391 0.11719-0.015625 0.52734-0.15234 0.33984-0.09375 0.22266-0.35156 0.17188-0.33594-0.066407-0.54688-0.078125-0.4375-0.32031-0.24219-0.10547-0.19141-0.054687-0.21875-0.054688-0.074219 0.11328-0.30859 0.56641-0.24219 0.44922zm-168.55-116.79 0.035156-0.050781c0.80469-0.28125 1.6172-0.55469 2.4258-0.82422l-0.37109 0.30859-0.054688 0.039063-0.59375 0.47656-0.33984 0.054687-1.1719 0.14453zm59.074 350.18c-84.359 0-155.13-57.988-174.71-136.26l0.34766 0.20312 0.80469 0.95312 1.6406 0.81641 1.4062 0.67578 0.90625 0.26172 1.1406 0.49219 1.625 0.81641 1.0938 0.054687 1.0859 0.25391 1.2109 0.70703 2.1406 0.11719 1.4102 0.39062 1.3594-0.81641 0.8125-0.59766 3.3594-0.15625 0.64453-0.015625 0.24219-0.035156 0.77344 0.73828 0.91797 0.33984 0.63672 1.3906 1.5352 0.41016 1.4336 0.64844 0.64844 0.074219 2.1211 1.2109 1.1719-0.58984 1.0742-0.19141 1.9883 0.37109 0.19531 1.2773 1.0742 0.011719 1.0352 1.1641 0.63281-0.33984 0.29297 0.25391 0.40234 0.30078 0.050781 0.035156 1.1719 0.85156 0.10156 0.62891-0.59375 0.3125-0.25391 1.1133 0.86328 1.6172 0.84375-0.14453 0.96875 0.46875 1.1523 0.6875 0.67578 1.4219 1.0078 0.33984 0.34766 0.10547 0.44141 0.20703 0.23047 0.10156 0.90234-0.27344 1.6055 1.2031 0.64844 0.12891 1.8555-0.73438-0.11328-0.63281-0.74609-0.73438 0.72656-0.77734 1.082-0.14453 1.125 0.48047 0.64844 0.11719 0.34766 0.79688 0.16797 1.0586 0.36328 1.043 1.0742 0.050781 0.40234 1.2227 0.17188 1.0547 0.17969 1.2617 0.22266 1.2773-0.30859 0.85547 0.003906 1.5391 0.96875 0.70703-1.0859 1.25-0.71875 0.97266-0.51562 0.94141 0.24219 1.2891-0.98438 1.2109-0.66016 0.94531-0.72266 0.73047 0.83594 1.1758-0.15625 0.51562-0.29297 0.83594v0.074219l-0.015626 1.2539-0.29297 0.875-0.015625 1.3086 0.17188 1.2656 0.35156 1.0312 0.73828 0.10547 0.29687 0.80469-0.46875 0.94141-0.78906 0.8125-0.42188 1.3164 0.40234 1.2266 0.34766 1.0312 1.0078 2.2461 1.1875 0.85547 1.2148 0.71094 0.99219 0.90625 0.55469 0.77734 1.1914 0.88672 1.4375 2.1914 0.14063 0.29688 0.27344 0.57031 0.22266 0.51563 0.92578 1.8359 2.4062 4.3555 1.7812 3.3828 0.6875 1.625 1.3477 0.41406 1.2305 0.87891 0.64844 0.5 0.33203 0.22266 0.28516 0.089844 1.7188 0.48047 1.2148 0.86719 1.3906 0.46484 0.78906 0.59375 0.88672 0.63672 0.24219 0.73438 0.66016 2.1523 0.82812 1.3594 0.24609 1.707 0.09375 1.9375 0.17969 2.5547 0.17188 1.0469-0.44922 1.5742 0.11328 0.87891 0.86719 2.4414 0.15625 1.2656-0.25781 0.98047-0.035156 0.15234-0.22266 0.45312-0.24219 0.45312 0.12891 0.83594 0.39844 1.2617-0.17188 3.0508-0.45312 1.332 0.066406 0.33984 0.10156 0.63672v0.085938l0.99609 0.92578 0.20703 1.0547-0.42969 1.7266-0.11719 0.5 0.066406 0.20703c0.92578 0.55859 1.8203 1.1133 2.7227 1.6914 8.0547 4.8047 16.453 8.9883 25.184 12.527l0.035156-0.089843 0.27344-0.57813 0.10156-0.17187 0.80469-3.1484-0.42188-1.2383-0.92969-0.51562-0.15625-1.1875v-0.0625l-0.60938-0.99609-0.015625-0.015625-1.4336-1.0469-1.1016-1.5391 0.15625-1.7734 0.70703 0.53125 0.71094 1.6133 1.1211 0.26953 0.75781 0.75 1.0742 0.039063 1.2422-0.39062 2.5156-0.37109 0.69922-1.2617 0.30078-0.54297 1.1523-2.1289 0.33594-0.59766 0.21875-0.40234 0.20703-1.332-0.023438-1.7188 1.2422-1.707 0.37891-1.6758 0.11719-0.59766 1.2227 1.8828 0.20703 0.32422 0.035156-0.11719 0.15625-0.69531 0.17969-0.74609 0.22266-1.5391 0.37891-1.793 0.91797-1.0312 0.67188-1.1758-0.14062-0.83594-0.17188-1.2422-0.22266-1.4883-0.56641-2.2734 0.30078-0.90234 0.68359-1.0117 0.55859-0.69922 1.0586-1.4727 1.4609-1.4375 0.46484-0.44141 0.16406-0.14062 1.5781-0.6875 0.51562-1.1523 1.1641-0.58203 2.1836-1.4219 1.4883-0.050781 0.28125-1.082-0.039062-1.7266 0.64844-2.6641 1.0039-1.8984 0.71875-2.4805-0.13281-1.0469 0.20312-1.1367 0.066406-2.5938-0.47656-1.6523 0.19141-2.2188 0.035156-0.39062-0.054688-0.20703-0.46094-1.8633 0.56641-3.3359 0.81641-0.10156 0.23047-0.066406 0.17969-0.62109 0.25781-0.95703 0.20703-1.293 0.23437-1.3164 1.0469-1.6953 1.668-1.7461 0.16797-1.7188 0.015625-0.035156 0.10547-0.64453 0.37109-1.8047-0.55859-3.5898-1.2266-1.1133-0.50781-1.8633-1.4062-0.44141-1.625 0.49219-1.7148-1.4727-2.2734-2.0391-2.1211-0.28516-0.09375-0.015625-0.54688 0.078125-1.125 0.15234-2.2344-0.49219-1.9766-0.32422-0.4375 1.3672-1.2031-0.94141-1.832-1.8633-1.5898-0.62891-1.832-0.54297-2.3281 0.089844-1.1016 1.2773-0.28516-1.8945-0.97266-0.71094-1.3984 0.63281-1.1797 2.1328 0.16797 1.0625-0.90234-0.11328-0.99609 0.59766-0.20703-1.457 0.29688-2.0156 1.8828-0.69922 0.054687-1.0742-0.15625-1.0977-1.0117-0.90625 0.42969-1.3477-0.96484-0.5-0.46484-1.875-1.4375-2.3125-1.5078-1.3203-1.6914-1.25-2.5312-0.90625-0.94141-0.51562-4.1055 0.83594-0.63281 0.125h-0.039062l-1.2656-1.0977-1.1133-0.28516-1.1992 0.62109-0.20703-1.2656-0.015625-1.293-0.4375-0.53906-2.2969-0.97266s-1.4453 0.62891-1.7539 0.039063c-0.32031-0.58203-0.11719-0.83594-0.11719-0.83594l0.085937-0.86328-0.96484-0.51562-1.125-0.5-1.1758-0.66016v-0.55469l-0.003906-0.59375v-0.34766l-0.81641 0.33984-1.3008 0.53906-1.1367 0.49219-0.49219 1.1211-1.7305 0.078125-0.91406-0.50391-1.5078 0.19922-1.2539 0.17188-1.5859 0.90625-0.57031-0.98047-1.1719-0.69531-1.418-0.64844-1.0977-0.26172 0.14453 1.0312-0.96484 0.79688-0.98047 0.81641 0.14062 0.85156 0.066406 0.38672 0.10547 0.15625 0.72266 1.0117-0.13281 0.81641-0.074218 0.51562-0.39844 0.066406-0.47656 0.039063-0.8125-1.1328-0.21875-1.4766v-1.293l-0.38672-1.25 0.17969-0.33984 0.42578-0.8125 0.39062-0.73438-0.57812 0.078126-0.63281 0.11328-0.054687 0.015625-0.52734 0.73828-0.73828 0.73438-0.99609 0.8125-0.80078 0.35156-1.9805 1.1484-0.50391 0.94141-0.21875 1.3047 0.41016 1.25-1.4883 3.0234-2.9219-2.3203-1.4727-1.3047-1.6445 0.6875-1.0938 1.25-1.4219 0.63281-1.8555 0.14062-1.5898-1.5586-0.90234-1.2617-1.0195-1.457-0.71875-1.8125-0.015625-0.035156 0.015625-2.168 0.015625-3.7422v-0.95312l-0.56641-1.0469-1.332-0.58203-0.51562-0.19531h-0.20312l-2.8125 0.054687-1.4492 0.41016-1.1641 0.36328-1.0117 0.33984-0.29297 0.089843-1.5586-0.17188 0.050781-0.29297 0.10547-0.50781 0.58203-3.1914-0.13281-2.1328 1.0703-1.457-0.62891-6.8477-1.6758 0.29688-2.0273 0.76562-1.1523 0.99609-0.59766 1.6172 0.20312 1.4727-0.75781 2.0391-1.1758 0.83594-1.2539 0.41016-0.97266 0.58984-0.67187 1.1758-0.95313 0.41016-0.63672 0.25391-1.043 0.15625-0.25781 0.054688-0.066406-0.15625-0.27344-0.60938-0.003907-0.035156-1.8086-0.79688-4.3047-5.3945-0.35156-2.082-0.27344-1.9375-0.85547-3.2969 0.29688-1.7852 0.72266-0.94141-0.22266-1.5-0.91406-2-0.050781-1.7539 0.79688-1.8086 2-1.1602 0.17969-1.332 0.86328-1.4102 0.33594-0.12891 0.62109-0.27344 0.69531-0.28516 1.625-0.67188 1.4375-0.23437 1.9766 0.14453 0.64453 1.1719 0.92969-0.78906 1.7539 0.16406 0.75781-0.75-0.37109-1.0117v-1.5l1.6914-0.26172 1.8633-0.28516 1.2031-0.60938 1.4219 0.85156 1.2305 0.21875 0.10156 0.015624 0.53906-0.074218 0.73438-0.11719 0.78906-0.35156 1.0117 0.72266 1.0312 1.1328 0.58203 0.96875 1.0352 2.6758 0.20313 1.2656 1.0078 0.32422 0.15625 1.0586 1.1328 1.0547 0.94141 1.8086 0.85156-0.12891 0.30859-0.70703 0.28125-1.1133-0.28516-1.9102-0.76172-2.0273-0.96484-2.0117-0.24219-1.6641-1.0312-1.1602-0.23438-1.457 0.11719-1.9727 0.125-2.168 1.1992-1.9141 0.71094-0.95703 2.5859-2.7891 1.082-1.4375 1.1016-1.2383 0.125-0.69922 1.3008-1.2812-0.64844-1.5898-0.60937-0.99609-1.4062-0.86719-0.19531-1.2773-0.62891-1.1758 0.039062-1.0977-0.18359-1.25 0.20312-0.53125 0.19141-0.51563 0.38672-1.0469h1.5117l-0.70703 0.97266-0.074219 0.21094-0.17969 0.51562-0.054688 0.17969 0.22266 1.4727 0.71094 0.53125 1.1641 0.48047 0.44922-1.3672 0.3125-0.95703 0.11719-0.39062-0.11328-0.14062-0.73437-1.0078 0.58203-0.55469 1.0312-0.33984 0.53125-0.95703 0.066406-0.90625 0.042969-0.63281 0.011718-0.20703 1.5352-1.3047-1.3164-0.011719 1.1016-1.4727 0.80469-0.35156 0.32422-0.14062 0.62891-0.29297 1.0586-0.51562 1.0469-0.15234 0.09375-0.87891-0.35156-0.77734v-1.5234l-0.23438-1.5078 1.1016-1.2148 1.2383-0.42578 1.1094-1.0078 1.1523 0.44141 0.78516-0.55469 0.29687-0.90234-0.24219-1.4727 1.6758-0.48047 1.0039-0.35156 0.60938-0.5 0.28516-0.70703 0.78906-0.77344 0.58984 1.1992 1.0742 0.050781 0.53125 0.57031-2.4531 0.81641-0.96875 0.8125-0.97266 1.0039 0.42187 1.2383 0.74609 0.51562 1.1914 0.69922 1.0469-0.20312 0.94141-0.97266 0.26172-1.1211 0.86328-1.4336 1.2305-0.39062 0.77734-0.57031 1.2227-1.8984-1.7422-0.17969-1.7266 0.26953-1.2695-1.0977-0.72266-0.75-0.88672-1.5898-0.86719-1.3828-2.2305-0.5 0.050781-1.082 0.86328 0.074219 1.2656-1.6914 0.13281-0.67188-0.32422-0.81641-0.83594-0.95703-1.4766 0.23438-2.3789 1.2305-1.3281 1.2539-1.9023 1.6289-1.2227 1.8945 0.015625-1.0859 0.75781-2.2383 1.1797-0.86719 0.94141-1.0117 0.63672-1.1484 1.6562-1.9727 3.9531-0.83594 1.8828-0.5 1.2031-0.59766 1.8477 0.77734 2.2344-0.99609 1.125-1.0312 1.8633-1.793-0.17969-1.0469 1.4336-0.65625 1.8203-0.70703 1.2773-1.7266-0.16797-1.0312-0.25781-1.6758-1.3984-0.64844-1.0938-0.27344-1.832 0.93359-3.1367 1.9766 0.96484-0.79688 0.98438-1.8828 1.2617-0.39062 0.73438-0.75781-0.37891-1.0117-0.72656-0.77344-0.89453-0.066407-2.957 0.44141-0.89062-1.5859-1.4062-0.83594-1.0039-0.96484-1.0391-0.90625 1.3672-0.85547-0.13281-0.84375-1.3047-0.21094-0.12891-1.0938-1.0742-0.89062-0.71875-0.73438-1.2227 0.39063 0.47656-1.1641-0.21094-1.2539-0.76563-0.78906-1.1523-0.42188-0.86719-1.3984-0.20703-1.4102-0.035156-0.25781-0.58203 0.074219h-0.050781l-0.19531 1.082-0.042969 0.25391-0.023438 0.054688-0.80078 1.6055-1.0117 0.58203-0.50391 0.68359-0.95312 1.0312-1.1875 0.41406-0.83984 0.30859-0.80078-1.1602-0.71094-0.35156-1.7148 0.10156-0.50391-1.9023-0.027344-1.1016-0.015625-0.57812v-0.027343l0.035156-1.3047 0.0625-0.85156-1.2617 0.19141-0.32031-0.58203-0.73828-0.76562-1.1875 0.81641-0.81641 0.13281-0.88672-1.3984-1.6641-0.71094-0.16406-0.085937-0.42188-0.20312-1.4688-0.77734-1.418 1.2891-2.2188-0.26172-2.1445 0.015625-2.0156 0.60547 0.27344 1.8203 0.28125 1.7539 0.20312 1.4961 0.96484 0.18359 0.59375 2.0391-0.42969 1.0078-1.668 1.1406-0.39062 1.5977 0.16406 0.13281 0.42969 0.375 1.5391 1.3086 1.5234 2.1992 0.96875 0.81641 0.53906 0.46094 0.30078 0.26953-0.21094 2.8008-0.60547 1.9258-0.72656 0.55859-0.75781 0.60938-0.41406 0.34766-1.3281 1.3984 0.55859 1.7539 0.375 0.60547 0.46094 0.79688 0.023437 0.10547 0.25391 1.707-0.12891 3.0703-0.71875 1.3164-0.39844-0.039063-0.63281-0.089844-1.1484-0.13281-1.4102-1.3008-0.54297-1.457-1.2266-1.1914-0.26172-1.5078-0.26953-1.7852-0.30859-2.1016-1.7812-0.76562-3.9023 0.58984-2.0703-0.69531-0.62891-0.17969-1.7812-0.60547-1.4336-1.2773-0.48828-0.23047-0.57812-0.26172-0.92969-0.42578-1.8633-0.33984-1.9219-0.62109-1.6953 0.86328-1.3672-1.0312-0.86719-1.0117c5.7344-15.562 13.59-30.105 23.16-43.305l0.61719 0.34766 0.027344-0.72266 0.53125-0.35156 0.60937 0.17188 0.96484 0.71094 0.34766-0.48047 0.52734 0.77344 0.17188 0.98438 1.0586 0.30078-0.38672 1.332 0.35156 0.375 0.53125 0.59766 0.52734-0.21875 0.64844-0.37891 0.5-0.64453 0.78906-0.44141 0.125 0.86719 0.14453 0.99609h0.023437l0.90625 0.42188 0.60938 0.18359 0.11719 0.98438 0.49219 1.2305 0.51562 0.64844-0.95312 0.25781 0.14453 0.85156 0.19531 0.51562 0.35156 0.39844-0.48828 0.50391-0.5 0.65625-0.64844 0.94141-0.64844 0.83594 0.050781 1.0078 2.5352 1.7305-0.32031 0.77734-2.3203 0.76562-0.90625 0.45313-2.1406 0.015624-1.6875 0.95313-0.45312 0.25781-0.0625 0.17188-0.77344 1.9492 0.19141 1.1094 0.69922 0.19531 0.67188 0.46094 1.6445-0.54688 0.98437-1.1523 0.53906-0.066406 0.10156-0.015625 0.61719-0.10156 0.35938-0.17188 0.070312-0.019531-0.33984-1.2539 0.44141 0.22266 0.41016-0.050781 0.83594-0.29297 0.35156 0.53125 0.85547 0.035156 0.50391 0.46484 0.94141 0.42578 0.32031 0.25391 0.36328 0.33594 0.50781 0.46875 0.29688 0.27344 1.1406-0.15234 0.46484 0.36328-0.67187 0.52734-0.23047 0.17188 0.18359 0.46094 0.015626 0.074219 0.4375 0.050781 0.17969 0.015625 1.125-0.015625 0.41016-0.19141 0.14062-0.0625 1.2656-0.19141 1.7812-0.39062 1.3281 0.085937 1.2656-0.20312 1.1523 0.11719 1.3477-0.33984-0.066406-0.73828-0.87891 0.16406-0.83594-0.89453-1.1641-0.089844-1.5352-0.76172-1.418-0.81641 0.53906-0.21094 1.2539-0.33984 0.78906-0.41016 0.99219 0.86719 1.7656-0.58203 1.6445 0.48047-0.30859-1.2305 0.32422-0.77734-0.18359-1.0039-0.51562-0.62109-0.69922-0.015625-2.8125-1.1484-0.80469-0.89453-0.60938-0.91406-0.46484-0.33984 0.26953-1.9258-0.11328-0.96875 1.1914-0.48047 0.77344 1.0469 0.59766 0.46484 0.68359 0.61719 1.1602 0.12891 0.14062 0.6875 0.69922 0.13281 0.50781 0.5 0.65625 0.62891 1.4844 0.066407 0.96484-0.13281 0.050781-0.58203-0.10547-1.5625 0.95312-0.41406 0.15234-0.77344-0.078125-0.6875 2.1055-0.30859-0.050781-2.1562-0.40234-0.66797-0.78516-0.58203-1.1328 0.14062-1.4375 0.97266-0.44141-0.074218-0.54297 0.074218-0.99609 0.16406-1.125-1.6797-0.72656-1.1875-0.68359 0.37891-0.35156 0.48047-0.46484 0.63672-1.2305 0.5-0.6875-0.90625-0.375-0.44141-0.47656-0.5-0.16797-0.20312-1.9883-0.40234-0.59375-0.51562-0.16406-0.94141 0.57812-0.11719 0.59375-0.78906-0.4375-0.94141 1.1016-0.16406-0.90234-0.58203-1.1641 0.054687-0.55859-0.79687 0.65625-0.54688 0.77344-0.375v-1.0078l-1.0547-0.42969-0.039063 0.58203-1.0117 0.015625-0.89453-1.1484-1.0703-0.16406-0.38672-0.050781-0.35156 0.49219-0.25781 1.1328-0.0625 0.35156-0.0625-0.14453-0.24219-0.8125-0.29297-0.99219-0.55469-0.60547-0.66016-0.48828-0.53906-0.73828s-1.0078 0.12891-1.3828 0.17969c-0.42969 0.054687-0.25781 0.20703-0.25781 0.20703l-1.4062 0.19531-0.375-0.51562-1.1641 0.76562-0.085938-0.59766 0.015626-0.41016 0.011718-0.34766c5.7852-7.1797 12.074-13.91 18.871-20.121l1.0547-0.17188 1.9609 0.37109 1.2109 0.86328 0.26172 0.25781 0.29297 0.33594 0.32422-0.042969 0.5-0.078125 0.83984-0.35156 0.69531 0.32422 0.32031 0.8125 0.28516 0.59766 2.3516 0.96875 1.332 0.33203 0.19531 0.039062 0.11328 0.73828 0.050781 0.32422-0.22266 1.332 1.1133 0.035157 0.35937 1.0117 1.1641 0.72656 0.16797 1.0625 1.1758 0.67188 0.15625 1.0352-0.56641 0.51562-0.27344 1.1328v1.0625l-0.14062 0.67578 0.10547 0.61719 1.0625 0.050781 0.80078-0.33984 0.99219-0.58203 0.58984 0.035156 0.53125 0.039062 0.17969-0.039062 1.7305-0.29688 0.28125 0.61719 0.86719 0.09375 1.1094 0.035157 0.67188 0.32422-0.30859 0.91797 0.14453 0.82812 0.55859 0.78906-0.125 0.64844-1.0469 0.19531-0.6875-0.33203-1.1719-0.50391-1.9727-0.11328-1.6719 0.27734-0.089843 0.042969-0.83984 0.3125-0.10156 0.023437 0.085938 0.015625 0.60547 0.19531 0.89453 0.22266 0.5 0.53125 1.7656 0.16797 0.51562 0.55469 0.90234 0.29688 0.91406 0.33594 0.83594-0.13281 0.59375-0.32422 0.64844-0.054687 0.46094 0.53906 0.19141 1.0312 0.36328 1.0547-0.042969 1.2812-0.78906 0.11328 0.16406 1.2812-0.039062 1.0586-0.85156-0.074219-0.86328 0.14062-0.73438 0.75-0.13281 0.67188 0.6875 0.33594 1.7266-0.25781 0.81641-0.14453 0.37891 0.80078 0.29297 0.82812-1.0117 0.35156-1.0938-0.039063-0.89063-0.27344-1.0234 0.54687-0.92578 1.0312 0.18359 1.0586 0.81641 0.92969-0.54688 0.96875 0.22266 1.2383 0.69531 0.34766 0.29297 0.58203 0.84375-0.125 1.1914 0.67188 0.41406 1.4492-0.066406 0.86719-0.33594 0.6875 0.54688 0.80469 0.90625-0.99609 0.13281-0.66016 0.61719-0.35156 0.82422-0.10156-0.5 1.1406-0.75781 0.55859-0.59375 0.50391 0.61719 1.0117 0.90625 0.5 0.14453 0.81641 0.35156 0.61719 0.0625-0.015625 0.66797-0.10547 0.085938-0.015625 0.53125 0.78906 0.59766 0.42969 0.13281 0.10547 0.074219 0.47656 0.11328 0.57031 1.4453-1.0312 0.085938-0.039063 0.015625 0.023438 0.33203 0.75 0.80469 0.95703 0.15625 1.0625 0.71094 0.28516 0.3125 0.83984 0.51953 0.78906 1.2266-0.60938 0.5-0.94531 0.77344-0.55469 0.35938 0.84375 0.80078 0.92578 1.4961-0.24609 1.0586 0.054688 0.54688 0.58203 0.67188 0.32422 0.66016 1.4219 0.50391-0.5 0.60547-0.53125 0.11719-0.67578-0.33984-0.61719-0.71875-0.73438 0.44922-0.95312 0.69531-1.3828 0.089844-0.88672 0.29688-0.67187 0.015625-1.5273v-1.082l0.23438-0.375 0.33984-0.54687 0.24219-0.23438 0.28125-0.28125 0.37109-0.70703 0.29297-0.66016-0.14453-0.87891-0.015624-1.707 0.10156-0.86719 0.22266-1.3477 0.085938-0.62109 0.77344-0.58203 0.28125-1.0938 1.8477-0.5 0.99219-0.82422 1.0312-0.35156 0.32422 0.83984 0.86719 0.050781 0.53125-0.72266 0.46484-0.085937 0.60938-0.09375 0.17188-0.035157 0.94531-0.80078 0.69922-1.1484 0.29688-0.91797 0.56641-0.73828 0.76562-0.54688 1.3906-2.1523 0.96875-0.59375-0.125-0.81641-0.21094-1.4961 0.73438 0.55859 0.66016 0.10156 1.1992-0.62891 1.0352-0.33594 0.41406-0.085938 0.875 0.085938 1.0312-0.37109 0.60938-0.10547 0.82422-0.32422 0.58203-0.33203 0.58203-0.53906 0.38672-0.26953 0.88672 0.10547 1.0117-0.16797 0.46875-1.3555 1.1992-0.61719 0.54688-0.73828 0.87891 0.11328 0.46875-0.94531 1.4727-0.4375 1.0312-0.17187 0.11719-0.67188 0.50781-0.93359 1.2383-1.6758-1.6641 0.25391-1.1094-0.039063-1.3555-0.67578-1.0586 0.16406-1.3672 1.082-0.81641 0.10547 0.35938-1.7656 0.11719-0.67578-0.51563-0.57031 0.51563-0.90625-0.72266-0.54688-0.62109 0.085937h-1.3203l-1.0586 0.18359-0.96484-0.73438 0.63281-0.10156 0.83984-0.15625 0.64453-0.10156 0.62109-0.085938 0.80469-0.14062 0.67578 0.13281 0.87891 0.089844 0.69922 0.30859 0.73438 0.53125 0.96484 0.76562 0.33984 0.57031 0.91406 0.28125 0.86719 0.28516 0.91797 0.33594 1.0547 0.050781 0.69531 0.085938 0.55469-0.48047-0.11719-0.88672-0.36328-0.99609-1.1914-0.72266-0.78906-0.93359-2.0781-0.77344-0.94141-0.70703-0.91797-0.27344-0.75781-0.53125-0.67188-0.35156-0.80078 0.35156-0.82422 0.125-1.0938-0.0625-0.27344-0.46094-0.33984-0.54687 0.066406-0.054688 0.48047-0.62109 0.60938-0.32031 0.76172-0.57812 1.0078-0.58984 0.75781 1.0039 0.71094 0.30859 0.54688 0.57031h0.11328l0.73828 0.085937 0.29297 0.51562 0.59766 1.0547 0.97266 0.51562 0.66016 0.10547 0.86328 0.29297 0.60938-0.29297-0.51953-0.58203-0.54297-0.75781 0.96875-0.59375-0.56641-0.58203-0.13281-0.15234-1.1992-0.48047-0.96875-0.72656-1.4609-0.85156 1.5391-0.22266 0.83594 0.089844 1.2695-0.19141 0.73828-0.81641 1.0312-0.32422 0.49219-1.1523-0.8125-0.95312-2.0273 0.95312v-1.5391l1.6758-0.42578-0.14453-0.83594-0.09375-0.63281-0.10156-0.64453-1.2539-1.0977 0.83594-0.13281 0.70703 0.11328 0.91797 0.52734 0.48828-1.1602-0.13281-0.83984-1.5898-1.9023-0.98047 0.57031-1.0742 0.16406 0.56641-0.73438 0.49219-0.90625-0.14453-0.66016-0.13281-0.37891-0.15625-0.42578 2.4453-0.035156h0.57812l0.47656 0.35156 1.0586-0.17969 0.80078-0.51562-0.12891-0.18359-0.41016-0.55859-0.32813-0.47656-0.54687-0.76562-0.81641 0.32422-1.25 0.19141-0.75781-0.53125 1.293-1.4961-1.5625-0.19531-2.5742-0.027343-0.10547-0.64453c-0.085938-0.61719 0.86328 0.089843 0.86328 0.089843l1.5352-0.21094 0.25391-0.91797 0.29688-0.90625 1.2695-1.4727-0.29297-1.9141 2.6328-1.2422-0.10156-0.63672-1.8633-0.80469-1.4453 0.23438-1.2109 0.61719-0.39062-1.0586 0.95312-0.75781 1.4727-0.22266 0.94531 0.46484 2.957-0.42969 1.0938-1.4727 0.66797-0.64844 0.48828-0.46484 0.16406-0.14453 0.71094-0.73828 0.96875-0.81641 0.69922-0.95703 1.5742 0.19141 1.2031-1.6797-1.3398-0.46484-2.5156 0.40234-0.69531 0.11328-0.44922 0.050781-1.6055 0.24219-3.5664 0.53125-1.1914 0.85156-1.4609 0.22266-1.4688 0.23438-1.0938-0.0625-1.2227 0.60938-1.0938 1.2383-0.67188 1.0039-1.418 0.8125-0.22266 0.039063-0.72266 0.10547-0.93359 0.15234-0.76172-0.72266 0.98438-0.59766 0.77344-0.53125 0.58984-0.3125 0.55469-0.71875 0.69922-0.99609-0.73438-0.50781-1.2695-0.023437-1.4727 0.24609-0.26172 1.293-2.0117 0.71094-1.3945-0.63672-1.1406-0.59766-0.054687-0.027344-0.81641 0.027344-1.3164 0.054688-3.0859 0.92969-1.9336 0.25781-2.8242 1.3086 0.042969-0.5 0.015625-0.59766 1.6172-0.88672 0.56641-0.20312 1.6562-0.58203 3.6016-0.51562 3.0234-0.54688 1.0586-0.20703 3.8867-0.69922 2.5977 0.039062 1.457-0.23047 0.94141-1.0039 0.21094-1.3398-1.7695-0.35938-0.64844 0.089843-1.6758 0.050782-0.51562-0.22266-0.21875-0.11719-0.57031-0.011719h-0.5l-1.3008-0.050781-0.33984-0.80469-0.22266-0.22266-0.375-0.35156c17.438-5.6328 36.031-8.7148 55.352-8.7148 42.125 0 80.84 14.504 111.51 38.734l0.21094 1.3828 0.58984 1.3477-0.95703 0.32031-0.85156-0.44922-0.42969 1.4492-0.85156-0.25391-0.5-0.71875-0.30859-0.79688-1.3984 0.44141-0.80469 0.09375-0.035156 1.0469-1.4609-0.39062-0.86719-0.26172-0.99609 0.125-0.72266 0.71094-0.17969 0.59766-0.14062 0.73438-0.050782 0.15625-1.3711 0.19141-0.81641 0.13281-0.60547-0.089844-0.64453-0.11719 0.91797-0.57812 0.33203-0.64453-1.0234-0.015624-0.51562-0.75781-0.63672-0.11719-1.9805 1.7266-1.0469 0.96484-1.0352 0.17969-0.73438 0.51562-1.0742 0.77344-0.58203 0.32031-0.76562 0.27344-0.066406 0.074218-0.50781 0.38672-1.0547 0.82422-0.050781 1.0312v1.2305l-1.082 0.97266-0.55859 0.48828-0.76562 0.30859-0.82813-0.24609-0.95312-0.88672-0.20703-1.1875 0.53125-0.71875 1.0742-0.96875-0.41016-1.3711-0.76562-1.0977-1.5117-0.35156-2.3867 0.35156-0.042968 1.0312 0.46875 0.53125-0.14453 1.6562-0.066406 0.81641 0.17969 1.2031-0.21094 1.4492-0.19531 1.2539-0.25391 1.0469-1.7148-0.55859-0.47656-0.53125-0.63672-0.10547-0.77344 0.66016-0.46094 0.41406-0.18359 0.16406-0.6875 0.90625-0.59766 1.3203 0.089844 0.60938 0.77734 1.0938 0.69922 0.70703-0.98047 0.15625-1.125-0.64844-0.86719-0.45312-1.2539-0.0625-0.87891-0.46875-0.76172 0.11719-0.042969 1.2422 0.15625 1.1797 0.67188 0.32422 0.98438 1.0859-0.20703 1.0312-1.1914 0.37891-0.96484 0.16406-1.5586-0.60547-0.48828-0.54297-0.74609-0.87891-0.78516-1.1016-0.41016-1.3828-0.35938-0.95312-1.0625-0.4375-1.0859-0.44141-1.2812-0.4375-0.72266-0.67188-0.78906-1.3281-1.2539-1.4375 2.2383 1.3008 0.98438-0.15625 0.66016 0.48047 1.0742 0.32031 1.6562 0.11719 2.0234 0.078125 1.8633 0.13281 1.0938 0.46094 1.332-0.63281 0.99609-1.3711 0.73438-0.72656 0.72656-0.65625 0.46875-0.42969 0.39844-0.36328-0.64453-1.5234-0.37891-1.1797-1.0312-0.015625-1.0938-0.65625-0.3125-0.23438-1.0938-0.79688-0.54688-0.23047-0.78516-0.35156-1.0469-0.46094-2.957-0.57031-0.80078 0.125-1.6914-0.36328h-1.1914l-1.6055 0.24219-0.67188-0.32031-1.4766-0.35938 0.51562-0.72266-0.90234-0.6875-0.60938 0.125-0.98437 0.13281-0.82813 0.13281-1.6523 0.85547-0.73438-0.71094 0.51953-0.47656 0.33984-0.46094 1.1406-0.58203-1.4492-1.4102-0.58203 0.10156-0.42578-0.33984-0.89062-0.47656-0.10547 0.63281 0.10547 0.76562-0.94531 0.58203-0.73438-0.89062 0.63672-1.1641-0.28516-0.53906-0.67578-0.32031-0.5 0.50781-0.054687 1.0312-0.27344 1.0234-0.085937 0.63281-0.57031 0.29297-0.5-0.54297-0.10156-0.57031-0.41406-0.17188-0.10156 0.84375-0.44922 0.86719-0.09375 0.12891-0.25781 0.35156-0.023438 0.27344-0.054688 0.54688-0.47656 0.70703-0.33984-0.98047-0.11328-0.59375 0.36328-0.53125 0.12891-0.17188 0.15234-0.46484 0.13281-0.38672-0.51562-0.53125-0.35156-0.11328-0.51562-0.16406-0.42969-0.089844-0.16406-0.023437-0.63672 0.066406v1.0469l-0.35156 0.46484-0.77734 0.33203-0.085937 0.80078-0.51562 0.51563-0.77344 0.32031-0.61719 0.09375-1.3398-0.63672-0.71094-0.14062-0.33594-0.089844 0.41406 1.3672-0.29297 0.46875-0.64844-0.15625-0.875-0.22266 0.375 0.96484-0.62891 0.10156-0.73828 0.30859-0.69922 0.90625-0.60547-0.11719-0.46875 0.92969-0.73828 0.48047-0.50781 0.91797-0.4375 0.67188-0.050781 1.2422-0.41016 1.4453-0.86719 0.75-0.70313 0.72656-0.51953 0.066406-0.26172 0.042969 0.35938 0.95312 0.3125 0.77734-0.039063 0.33594-0.039063 0.30859-0.54297 0.68359-0.62109 1.1133-0.59375 0.074219-0.54688 0.51953-0.25391 1.0312-1.0625 1.2617-0.11719 0.16406-0.25781 1.0742-0.73438 0.70703-0.20703 1.0547-0.75781 0.51953-0.52734 0.29688-0.66797 0.085937-0.79688 1.3398-0.26953 0.86719-0.70703 0.51953-0.085938 0.80078 0.81641 0.29688 0.60938-0.085938-0.47656 0.85156-0.003906 0.035156-0.90234 0.56641-0.81641 0.10156-0.19141-0.51562-0.11719-0.25781-0.59766-0.10156-0.60938 0.10156-0.77344 0.32031-0.11719 0.14453-0.39062 0.53125 0.125 0.125 0.41016 0.40234 0.42578 0.32422-1.5586 0.6875 0.10547 0.77734-0.58203 0.11328-0.77734 0.125-0.35156 0.64453 0.089844 0.58984-0.32031 0.0625-0.60938 0.48047-0.25391 0.85156-0.81641 0.15625-0.45312 0.63281-0.94141 0.57031-0.32031 0.64844-0.48828 0.91406 0.59375 1.1484 0.15625 1.1875 0.62891 1.3164 0.51562 0.5 1.5234-0.41016-0.16406 1.668-1.1016 0.55859-0.085938 0.81641 0.10547 0.8125 0.81641-0.11719 0.39062 1.1641 0.16406 1.1914 1.0859 0.44922 1.0547 0.22266 2.3906-0.33594 0.91406-0.77734 0.80078-1.3438 1.3477-0.60938 0.62109-0.90234 0.97266-0.35156 0.78516 0.70703 0.30078 0.96484 0.55859 0.95312 0.054687 0.30859 0.089844 0.62109 0.042969 0.25781 0.87891 1.4961 1.5 0.80469 0.66797 0.30078 0.28125 0.53906-0.67188 0.93359-0.51562 0.48047-0.95703 0.33984 0.13281 1.0117-0.99219 0.13281-0.64844-0.089844 0.20312 1.2031 0.72656 0.89062h1.2617l0.27344-0.63672-0.12109-0.83594 0.29688-0.85156 0.77344-0.33594 0.085937 0.58203 0.5 0.57031 1.3555-0.41016 0.52734-0.51562 0.054687-1.0195 0.47656-0.86719 0.69531-0.53125 1.9922-0.5 0.61719-1.3086-0.17188-1.0039-0.19531-1.3945 0.23047-1.2422 0.003906-0.33984 0.011719-0.63281 0.003907-0.26953-0.15234-0.80469 0.12891-0.61719 0.77734-0.13281 0.60938-0.085938 0.92578-0.53125 0.58203-0.32031 0.30859-0.63281-0.30859-0.55859 0.60547-1.3203-0.98047-1.0703-0.6875-0.70703-0.85156-0.085937-0.63281-0.33594-0.64844-0.27344-0.86719-4.1484 0.33984-0.6875-0.12891-0.78906 0.5-0.46484 0.74609-0.74609 0.22266-1.2539 0.14062-0.125 0.37109-0.33984 0.003906-0.64453v-0.57812l0.73438-0.74609 1.8984-0.66797 0.92969-0.74609 0.23438-1.0938 0.92969-0.73828-0.57031-0.93359-0.73828-0.90625 0.65625-0.92578 0.51563-0.6875 0.64844-0.90234 0.33984-0.63672 0.3125-0.67578 1.3594-0.24219 0.51562 0.56641 2.1797-0.32422 1.125 0.62891 0.15625 0.97266v1.2422l-1.1094 0.99219-0.82422 1.1641-0.46094 1.0547-0.65625 0.90625-0.40234 1.4961-1.0469 1.1797-0.097656 0.22266-0.25781 0.63281-0.10156 0.26953 0.28125 1.7539 0.17969 1.1914 0.61719 1.3672-0.5 0.87891 0.71875 0.69922 0.3125 0.73828 0.41406-0.0625 0.77344-0.30859 0.60938 0.11719-0.085937 0.64844-0.49219 0.86719 1.4492-0.015625 0.28125 0.57812 1.4883 0.56641 0.6875-0.6875 0.47656-1.0977 0.50781-0.48828 1.1133-0.79688 0.79688-0.29297 1.1914-0.19141 0.97266-0.35156 0.77344-0.125 1.0195 1.2695 0.85156 0.29688 0.80078-0.11719 0.58984-0.30859 0.66016 0.30859-0.46094 1.0469-0.53125 0.73828-1.1523 0.20312-0.90234-0.30859-0.023437 1.2305-1.5352 0.44141-1.0586-0.23438-1.0117 0.14453-0.81641-0.29297-0.89062 1.1406-0.97266 0.17188-0.78906 0.11328-0.48828 0.69531-0.56641 0.49219 0.13281 0.93359 0.039062 0.23438 0.27344 0.29688 0.24219 0.23438 0.64453 0.3125 0.035156 2.8789-0.71094 0.69922-0.5 0.68359-0.86328-0.27344-0.29297-0.58203-0.45313-0.33203-0.75781-0.90625-1.1641 0.39062 0.41016 1.3438 0.027344 1.4297-0.26953 1.0742-0.46094 0.90234-0.32422 0.62109 0.09375 0.59766 0.023438 0.20312 0.074218 0.11719 0.46875 0.59375 0.125 0.81641-0.10156 0.11719-0.78906 0.84375-0.29297-0.59375-0.59766-0.10156-0.28125 1.0547-0.085937 0.83984-0.20703 1.2422-0.89063-0.46875-0.53125 0.28516-0.46094 1.0625-0.55469-0.90625-0.46094-0.35156-1.2227 0.19531-0.48828 0.6875-1.8633 1.0977-1.5 0.60938-0.80078 0.35156-0.80469 0.28125-1.3203 0.066406-0.73828-0.50391-1.4336-0.39063-0.42969 0.0625-0.75781 1.7461-0.97266 0.14453-0.53125-0.51953-0.63281-0.54297-0.78516 0.14453-0.80469-0.70703-0.29297-1.1523 0.93359-0.55859 0.023437-0.8125-0.51562-0.75-0.15625-0.99609 0.375-1.4844 0.14062-0.62109-1.0938-0.66016-0.42969-1.1328 0.66797-1.1328-0.12891-0.90625-0.023438-0.10547-0.32422-0.4375-0.20703-0.3125-0.30859 0.42578-0.53125 0.72266-0.015625 0.027344-0.50391 0.87891-0.62109 1.1211-1.3086 0.60547 1.0703 0.22266-1.6172 1.707 0.57812 0.91406 0.71094 0.71875 0.09375 0.80078 0.35156 0.94531 0.56641 0.72266 0.27344 0.78906 0.51562 1.7422 0.35156 0.98047-1.0039 1.6055-0.36328 0.015625-0.85156-0.066406-0.93359 0.33984-1.3945 0.42969-0.58984 0.066406-1.0312 0.15625-0.054687 0.64453-0.57031 0.5-0.59375 1.332-0.039062 1.1758v1.2773l-0.085938 0.58984-1.5117 0.24219-0.60938 0.078125-0.066407 0.015625-1.1523 0.58203-0.77344 0.33984-0.91797 0.73438-0.035156 1.0195-0.26172 0.83984-0.54297 0.69922-1.1523 0.40234-0.27344 0.83594-0.75 0.33594-0.97266 0.56641-0.53125-0.95703-1.2031-0.015626-0.24219 1.0703 0.29688 0.77344 0.39062 1.1602-0.71875 0.51562-0.85547-0.09375-0.77344 0.11328-0.80469 0.14062-1.2578 0.80078-0.57812 0.46094-0.3125 0.6875 0.15625 0.98047 0.83594 0.09375 1.4844 0.13281 1.3008 0.96484 1.7305 0.86719 1.7188 0.91406 0.64844 1.2148 0.30859 1.8086 0.050781 0.76172 0.035157 0.66016 0.074219 1.2891 0.29687 2-0.77344 0.80469-1.668-0.42578-1.5742 0.24219-1.4102-0.4375-1.3594 0.15625-1.332 0.23438-1.9102 0.96875-1.4102-0.24219-1.1758-0.29297-0.35938 0.53125-0.58203 0.75-1.293 0.46094-0.59375 0.76562 0.16406 0.89062 0.83984 1.0312 0.59375 1.0469 0.26172 1.7734 0.23438 1.5625-0.5 1.2227-0.19141 1.6016 0.19141 1.3555 0.41016 1.1016 0.55469 0.55469 0.30078 2.0391 0.16406 1.1328 1.625 0.20312 1.7305-0.73438 0.66797-0.089844 0.81641 1.0117 1.0859 0.74609 1.1133 0.074219 1.2539-0.88672 0.73828-0.79687 1.3672-0.21875 1.1406-0.14063 0.56641-0.80078 0.29297-0.94141 1.1914-1.0977 0.87891-0.35156 0.32031-0.98047 0.10156-0.93359 0.96484-1.0547 0.11719-0.72266-0.58984-0.81641 0.10547-0.92578 0.70703-1.2422 0.56641-1.0117 0.33984-0.5 0.80469-1.0469 1.2305-0.875 1.2422-0.83984 0.35156-0.52734 0.23047-1.4297-0.14062-0.89453-0.77344-0.79688 0.35156-0.75 1.1797-0.59766 0.10156-0.054688h1.5664l1.6406 0.44922 1.1914 0.26953 0.61719-0.78906 0.47656-0.97266 1.0742-0.39063 0.80078-1.0312 0.48828-1.2266 1.5977-0.26172 1.0859 1.4375 0.78906 0.77734 1.1328 1.25 0.39844 1.0586 1.0703 1.2266 1.2227 0.5 1.2539 0.71094 1.25 0.47656 1.4492 0.48047 1.5195 1.1367 1.3164 0.96875 0.98437 0.52734 0.41406 1.0586 0.22266 1.5781-0.09375 0.91797-0.59375 0.78906-0.59375 0.33984-0.90234 0.10547-0.92578 0.375-1.0938 0.61719-0.64453-0.11719 0.62891 1.0469 1.4492 0.45312 1.2227 0.53125 0.73438 0.35156 0.039063-1.1719 0.28125-1.1914 1.0859-0.39844 0.55469-0.75 0.59766-0.78906 0.50391-1.0195 0.027344-1.3477-0.09375-0.66016-0.56641-0.59766-0.19141-1.1328 1.4961-0.89062 1.0234 0.72656-1.1758-1.6289-0.80859-0.82031-1.0078-0.51562-0.76172-0.58203-1.0547-0.99219-0.6875-0.12891-2.6133-0.48047-0.875-1.2539-0.33984-0.86719-1.0039-0.51953-1.5195-0.92578-0.79688-0.78516 0.066407-0.76172 0.050781-0.63281 0.011719-0.42578-0.60547-1.5273 1.8633-0.95312 0.60547 2.7266 0.035156 0.10547 0.18359-0.11719 0.64844-0.44922 0.95312-1.2812 1.3203 1.1758 0.039063 0.30859 0.10156 0.59766 0.015625 0.22266 0.37109 1.0547 1.5273 0.46875 1.4375 0.67578 1.7969 1.3477 2.5586 0.29297 1.1094 1.4102 0.51562 3.3594 0.375 0.86719 1.1133 1.418 1.8086 1.0977 1.1016 1.3906 0.97266 0.56641 1.3672 0.015625-1.1875 1.0859 0.41406 1.082 1.1328 0.054687 1.5078-0.68359 1.1875-1.1016v-0.042968l0.13281-0.63281 0.33594-0.14062 0.53125-0.23438-0.35938-0.85156-0.42188-0.10547-0.67188-0.17188h-0.078125l-1.1719-0.054688-0.59375-0.82812-0.33984-0.83594 0.10156-0.92578-0.39844-1.082-0.21094-1.0977 1.0312 0.71094 0.76172-0.089844 0.60547-0.089844v-0.003906l0.35156-0.74609-0.37109-0.84375 1.1016-0.16406 2.0625-0.10547 0.58203 1.0586 0.72266 1.4961 0.60547 1.0352 0.55469 0.59766 0.12891 0.89453-0.50781 0.98438 0.375 1.0977 1.1484 0.074219 0.32031 1.9727 1.0703-0.14062 0.84375 0.77734 1.4219 0.48828 1.793 1.0977 0.83984-0.375 0.51562-0.99219 0.39844-0.75 1.3008-0.19141 1.4844 0.67578 1.2227 0.50391 1.3672-0.22266 1.0078-0.83594 1.1484-1.2891 1.2227-0.86719 0.54688 1.9531 0.054687 0.37891 0.11328 0.58984 0.15234 1.0469 0.34766 2.2305 0.23047 1.5664-0.39062 1.8984-0.003906 1.3672-0.11719 0.93359-0.50781 1.2109-3.3555 0.30859-0.84375 0.55469-0.95312-0.32422-1.3281 0.23047-1.4453 0.89453-0.66797 0.33594-1.1133 0.19531-1.1211-0.050781-0.99609-0.35156-0.19141 1.6445-0.85547 0.33984-0.66016 0.10547-0.70703-0.10547-1.2305-0.70703-1.1641-0.078125-1.1094 0.17969-0.77344-0.59766-0.44141-0.18359-0.33203-0.15234h-1.3516l-0.90234 0.15234-0.89453 0.11328-0.81641-0.79688-0.53125-0.59375-1.1094 0.18359-0.90625 0.13281-1.3477 1.3672-0.59375 0.76172 0.20312 1.3477 0.16406 1.1016-0.58203 0.76172-0.56641 0.78516-1.3672-0.035156-0.72266-0.11719-0.93359-0.3125-1.2031-0.5-1.4883-0.46484-1.6641-0.67578-1.2812-0.91406-1.832 0.050781-1.6562-0.44141-1.625-0.17969-0.85156-0.81641-1.125-0.0625-0.77734-0.57812-0.47656-0.99609-0.26172-0.58203-0.25391-0.54688 0.57812-0.75-0.32422-2.0391-1.0078-0.73828 0.35938-1.625 0.89062-1.7656-1.3047 0.22266-0.94141 0.089844-1.0859 0.18359-1.4844 0.6875-1.4102-0.015625-0.94531-0.30859-0.3125 0.72656-1.1094 0.17969-0.97266-0.09375-1.6289-0.42578-1.3164 0.42578-0.10156 0.09375-0.56641 0.53125-0.74609 0.74609-1.9805 0.27344-1.3672-0.21875-0.93359 0.35156-0.5 0.99609-1.0117 0.81641-1.5078 0.70703-0.35156 0.73437-1.5273 0.45313-1.1133 0.41016-0.77734 0.58203-2.0273 0.32422-0.85156 0.35156-0.90625 0.14062-1.2031-0.5-0.95703-0.32422-1.1133 0.16797 0.24219 1.5391-0.24219 1.3984-0.77344 1.2812-0.72656 1.0312-0.003906 0.039063-0.76562 0.76562h-0.015625l-1.1992 0.84375-1.1484 1.7852-0.042969 2.5352 0.24609 1.7734 0.16797 1.1367 0.20703 1.3438-0.62109 1.9023-1.7188 2.3438-0.72656 1.0586-1.0039 1.0469-0.54297 0.98047-1.0703 0.41016-0.8125 2.4141-1.3945 2.6992-0.21094 1.4102-0.89062 1.7266-0.33594 2.3789-1.4609 2.2734 0.27344 1.7461 0.65625 1.5195 0.10156 0.25391 0.22266 0.61719 0.16406 0.4375 0.0625 2.2773 0.27344 1.5234 0.81641 1.0703 0.29297 1.9805-0.15625 1.5977-0.19531 1.8984-0.60547 2.1602-0.40234 1.875 0.85156 1.0195 0.47656 1.7148 0.63281 1.0742 0.82422 0.76562 0.81641 1.0547 0.90625 1.2109 1.2109 0.5 0.53125 0.59766 1.3438 1.2031 1.0742 1.2109 0.64844 1.4883 0.62109 0.80469 0.92969 1.4727 0.3125 0.35156 0.20312 0.25391 0.37109 0.32422 0.94531 0.84375 2.3242 1.7266 1.7305 0.85156 1.7656 1.0977 1.1797 0.26172 1.2148 0.29297 0.88672-0.125 3.6172-1.6758 1.3008-0.70703 1.3477-0.17188 1.7344-0.30078 1.1367-0.15625 1.9805-0.51562 1.5195-0.48047 1.2383-0.64453 1.3672-0.17188 1.3672-1.6055 1.0312-0.81641 3.2031-0.94141 0.074219-0.027344 0.60547 0.18359 0.35937 0.10547 1.7031 0.88672 0.39062 1.082 0.30078 1.7734 1.4766 0.71094 2.1914-0.54688 1.2227-0.66016 1.1484-0.17188 2.0664 1.4961 0.63281 1.0742-0.074219 2.7734-0.015625 0.88672-0.30859 1.3945 0.55469 3.3828-0.83984 2.1836 2.1562 2.168 2.4453 2.3984 2.5547 3.2695 0.46484 1.7188 1.1094 1.2266 1.3828 1.5977 0.42969 2.7148 0.37109 1.0117 0.22266 0.59766 0.25781 0.73828 0.33984 2.2578 0.39844 1.293 0.24219 1.5234 0.27344 2.3086-0.98047 1.9727-0.10156 1.1133-0.035157 2.5352-0.20703 1.8828-0.0625 0.19531-0.21094 0.6875-0.3125 1.0234 0.10156 2.2617 1.0039 1.9219 0.93359 1.6523 1.332 1.3945 1.4453 3.4648 1.625 1.5742 1.9648 3.8008 0.29297 2.0039 0.27344 1.793 0.90625 2.3633 0.25781 0.68359 0.15234 0.53906 0.3125 1.2266 1.1875 1.6133 1.3438 1.4062 1.3008 1.1641 0.82422 2.1719 1.0234 2.0391 0.24219 0.47656 0.066406 0.15625 0.39844 1.1758 0.57031 1.0469-0.039062 2.5195 0.27344 1.793 0.58203 0.82422 1.4609 0.45312 2.0156-0.089844 0.13281-0.027344 0.83594-0.24219 0.78516-0.21875 3.5898-0.53125 0.98438-1.082 2.4453-0.37891 0.89453-0.12891 2.2969-1.2656 1.1914-1.0742 0.003906-0.003906 0.32031-0.54688 0.24219-0.44141 0.75781-1.0117 0.53125-1.0469 0.78906-0.78516 0.54688-0.98047 0.75781-1.0586 0.53906-0.99609 0.20312-1.6289 0.75781-1.0352 0.51562-1.2266 0.78906-0.80078 0.54688-0.98047-0.86328-1.0312 2.0039-0.53125-0.41406-2.6953-0.51562-1.7422-0.85156-1.0195 0.85156-0.58203 0.94531-1.0586 1.293-0.65625 1.0625-0.37109 0.57031-0.79687-0.13281-0.92578-0.42969-5.8125-0.67188-1.3047-0.30859-0.62109-0.78906-0.80469-0.39062-1.0859 0.039063-1.1211 0.81641-0.58984 0.30859-1.1797 0.58984-1.9258 0.76172-1.0117 2.2969-1.2773 2.1406-1.2812 0.6875-1.457 0.98047-2.4453 0.33984-2.3281-0.29297-1.7578-0.20703-1.4297-0.10156-0.57812-0.125-0.92578-0.27344-1.1875-0.13281-0.56641-0.25781-1.1133-0.33984-2.2305-0.875-1.2695-1.0625-0.94531-0.28516-3.3711 0.44141-1.7031-1.0078-0.73438-1.1328-0.99219-0.18359-1.5781 0.91797-2.8398-0.37109-2.4805 0.46484-1.4219 0.71875-1.2812 1.5859-1.6133 0.60547-1.8828 1.4688-2.5586 0.56641-2.1289 0.98047-1.0625 1.6406-1.3672 1.7539-1.8828 1.793-3.2461 1.4766-2.2891 0.75781-2.4141v-1.5781l0.57812-2.3984 0.85547-3.3086 0.95703-2.6719 0.17188-1.8438 0.41016-1.8867-0.24609-1.6641-0.050781-0.35156-0.027344-0.20312-0.28516-1.5742-1.457 0.88672-1.2656 0.63672-1.2812 0.47656-0.66797 0.32422-1.1992 1.082-0.39844 0.53125-0.54688 0.75-1.9375 0.11719-0.55859 0.039062-1.1094 0.16406-1.1875-0.29297-2.1016-1.7266-1.6055-1.5742-0.16406-1.0977-1.625-1.332-0.72266-0.8125-1.0234-0.76562-1.043-0.76562-0.79688-1.0977-1.2266-0.39062-0.054688-0.015625-0.59766-0.32422-0.71875-0.37891-0.58203-1.7148-0.49219-1.3438-0.050781-0.14062-0.25781-0.46094-0.53125-0.94141-1.1016-1.0352-1.0938-1.3828-1.1094-1.0312-0.58203-2.043v-1.8477l-0.39844-0.86328-1.1797-1.6367-1.7461-1.2617-1.3984-3.1602-0.77344-1.0586-1.0469-2.8945-0.78516-1.1523-1.4453-1.293-0.20312-1.5078-1.0938-1.0195-0.15625-1.2422-0.20703-1.1523 1.1211 1.332 1.332 0.72266 1.9727 0.90625 1.1758 1.6758 0.82422 1.3945 2.1211 1.8086 1.4844 1.625 2.3125 1.457 0.18359 1.1875 0.24219 1.4883 0.21094 1.5117 0.78906 1.0938 0.51953 1.1602 1.3008 2.5195 0.35156 0.20703 0.69531 0.37891 1.5781 0.86328 1.4688 1.5898 1.1484 1.3477 0.92969 2.2891 0.027343 0.074219 0.19531 0.58203 0.35156 1.1016 0.63281 2.3203 0.50781 1.1602 2.1211 1.8242 0.99609 0.4375 1.5742 0.39062 1.9805-1.2266 0.83594-0.11719 1.8203-0.28516 2.7891-1.6562 1.707-0.86328 0.99219-1.3672 1.2227-0.83594 0.48047-0.32422v-0.17188l0.011718-1.6641 2.2578-1.2812 0.72656-1.0117 0.33984-0.46094 0.44141-0.58203 0.14062-0.14453 1.1602-1.2891 2.3125-0.95703 0.6875-1.3008 0.59375-2.2188 0.73828-1.0312 1.1914-2.3203-0.22266-1.5 1.1875-2.0312-0.83594-1.7148-2.3672-1.4453-1.293-0.41016-1.3555-0.73437-0.8125-1.3984-1.0234-0.74609-0.25391-1.4883-1.6445 2.2773-0.10156 0.14453-0.35938 1.0859-0.074219 0.19531-2.5664 1.0039-1.1641 0.48828-1.2305-0.13281-0.87891-1.6875-0.54687-1.4727-0.92578-0.12891-0.64844 1.6016-1.125-1.332-0.80469-1.418-1.3164-2.5664-1.1602-1.6172-1.1523-1.3789-0.77344-1.0977 0.089843-1.5195 2.0312-0.60938 2.0898-0.33203 1.4102 1.3281 0.46875 1.1367 0.42969 0.82812 1.1484 1.3672 0.71875 0.80078 1.3672 1.0078 1.0312 0.46484 1.5391 0.37109 1.3281-0.22266 0.63281-0.10156 0.14062-0.015625 1.4375-0.5 1.1992-0.19141 1.2383 0.10547 1.1211 1.3477 0.76172 0.80469 1.1914-0.17188 3.1523 0.73828 1.6289 0.67187 3.2031-0.79687 4.7227-1.332 1.5234 0.39062 0.64844 0.19141 0.66016 0.17187 0.035156 0.015626 0.44922 0.89062 2.5273 0.81641 1.7422 1.25 1.3281 0.72266 1.4961-0.22266-1.7344 2.7109-0.77344 1.0352 2.0898 1.4844 2.1289 0.29297 1.2305-0.17969 0.80469-0.72656-0.32422-2.0938 0.19531-0.93359 0.96875 0.49219 0.59375 1.7031 0.28516 2.0664 0.011719 2.1602 0.74609 2.6484 1.2031 2.8945 0.20703 0.47656 0.027343 0.074219 1.4062 3.4258 1.6406 2.4961 0.34766 2.3789 0.085938 0.30078 0.53125 1.7578 0.078125 0.074219 2.1016 2.0547 2 3.0352 0.61719 2.3594 1.7344 1.2656 1.3477-1.1328 0.67578-1.6016 1.1211-0.76172 0.40234 0.8125 0.375 2.3867 0.94141 1.9805 0.60938 2.0625 1.5742 0.36328 1.0469-1.0742-0.27344-1.7695-0.53125-1.4844-1.418-1.2891-0.77344-1.0859-0.42969-0.85156-1.125-1.3594-0.22266-1.5078-0.22266-1.4727-0.32422-2.082 0.32422-1.8984-0.41016-2.6953-0.29297-1.7578 0.09375-1.5352 2.0312-2.4648 1.2812-1.7148 1.4219-0.54688 1.7305-2.6992 0.77734-1.0469 0.75-1.0312 1.1797-2.2891 0.56641-0.44141 0.44141-0.33594c0.29297 4.1758 0.48828 8.3789 0.48828 12.633-0.003906 99.438-80.625 180.05-180.09 180.05zm65.578-227.72-0.41406 0.65625-0.53125-0.074219-0.58203-0.19141-0.39062 0.24609-0.95703 0.67578-0.60938 0.066406 0.40234-0.72656 1.3828-0.76172 0.22266-0.23438 0.32422-0.28125 0.22266-0.76562-0.53125-0.089844-0.64453-0.089843-0.56641-0.33984-0.46484-0.6875-0.62891-1.0195 0.47656-1.1523 0.35938-1.1914 0.16406-0.37891 0.67188-0.58203 0.066406-0.0625-0.11719-0.56641-0.27344-1.3438 0.35156-0.58984 0.11719-0.36328 0.75781-0.29297-0.24219-1.1328-0.49219-0.67578 0.44922-0.63672 0.46094-0.51562 0.89063-0.99219 0.375-0.52734 0.30859-1.0117 1.1992-0.16797 0.26953-0.089844 0.33203 0.24219 0.089844 0.22266 0.39844 0.40234 1.3828 0.24219 1.0469-0.15234 0.90234-0.44141 0.125 0.80078-0.37891 0.32031-1.0117 0.44141-0.26953 0.56641-0.24609 0.58203 0.59766 0.066406h1.25l0.27344 0.51562 0.011719 0.70703-0.19141 0.44922 0.38672 0.29297h0.72656l0.86719-0.60547 1.0938-0.53906 0.63281-0.32031 0.35156-0.16406 0.41016-0.24219 0.66797-0.09375 0.27734-0.66406 1.4297-0.47656 0.32031 0.37109 0.29688 0.69922 0.64844 0.25781 0.57031 0.25781 0.99219 0.64844 0.39062 0.26172 0.46094 0.39063 0.58203 0.54687 0.69531 0.5 0.54297 0.16406 1.3164 0.46094 1.0195 0.17188 0.51562 0.46484 0.5 0.59766 0.18359 0.25391 0.125 0.375 0.042968 0.33594-0.0625 0.64453-0.33984 1.0117-0.64453 0.72266-0.375 0.30859-0.82422 0.58203-0.51562 0.15625-0.56641-0.24609-0.30859-0.24219-0.015626-0.011719-0.34766-0.19141-0.23438 0.44922-0.011719 0.015625-0.45312 0.375-2.1016 0.20703-0.83594-0.29688-0.48047-0.19531-0.23047-0.33594h-0.71875l-0.42188 0.53125-0.54688-0.54688-0.5-0.17969-0.53906-0.09375h-0.68359l-0.085938-0.58203-1.0742 0.066407-2.8945 0.17969-0.46484 0.66797-1.0117 0.78516-0.40234 0.41016-0.87891 0.42578-0.22266 0.48047-0.33984 0.37109-1.5195 0.51562-0.26172-0.32031-0.93359 0.078125-0.59766 0.24219zm13.281-16.617 0.69922 0.44141 0.29297 0.29297-0.68359 0.83594 0.18359 0.47656-0.86719 0.23047-0.94531 0.33984-0.92578 0.22266-1.3711 0.21875-0.54688-0.21875-0.58203-0.3125-0.10156-0.52734-0.56641-0.19141-0.46484-0.20703-0.25781-0.40234-0.63672-0.32422 1.8047-0.21094 0.52734 0.035156 0.63672-0.46094 0.5-0.80469 0.82812-0.37109 1.457-0.42578 0.36328-0.48828 0.71875-0.44922 0.33984-0.21094 0.47656-0.27344 0.078125-0.015625 0.64453-0.19141 0.68359-0.10547 0.5-0.039062 0.085937 0.48047-0.55859 0.36328-0.41406 0.69531-0.4375 0.27344-0.29688 0.19141-0.13281 0.46094-0.035157 0.003906-0.36328 0.050781-0.71094 0.19141z"/>
  <path d="m243.41 67.699-3.6797-7.3594c2.4883-1.25 5-2.4531 7.5312-3.625l3.4375 7.4766c-2.457 1.1289-4.8828 2.3047-7.2891 3.5078z"/>
  <path d="m351.77 541.86c-5.5508-0.039062-11.066-0.25391-16.52-0.63281l0.58203-8.2148c5.2734 0.37109 10.617 0.58203 15.988 0.61719zm16.535-0.42578-0.48047-8.2148c5.3594-0.30859 10.68-0.78906 15.941-1.4297l1.0039 8.1641c-5.4492 0.66797-10.93 1.1523-16.465 1.4805zm-49.504-1.918c-5.4883-0.74609-10.941-1.668-16.32-2.7734l1.6562-8.0586c5.2031 1.0586 10.457 1.9609 15.766 2.6836zm82.309-2.1094-1.5391-8.082c5.2695-1.0078 10.477-2.168 15.617-3.5l2.0625 7.9727c-5.3203 1.3633-10.707 2.5664-16.141 3.6094zm-114.7-4.4844c-5.3477-1.457-10.613-3.0859-15.809-4.8789l2.6836-7.7852c5.0195 1.7422 10.129 3.3164 15.293 4.7227zm146.71-3.7891-2.5703-7.8164c5.0742-1.6758 10.09-3.5117 15.02-5.5039l3.0898 7.6328c-5.1133 2.0547-10.285 3.9531-15.539 5.6875zm-178-7c-5.1055-2.1523-10.125-4.4453-15.055-6.9062l3.6797-7.3594c4.7656 2.3789 9.6211 4.6016 14.555 6.6758zm208.63-5.375-3.5742-7.4102c4.8047-2.3242 9.5312-4.7891 14.164-7.4102l4.0469 7.1523c-4.7812 2.7188-9.6719 5.2773-14.637 7.668zm-238.25-9.4062c-4.7695-2.7891-9.4414-5.7227-14.012-8.7969l4.5938-6.8359c4.4297 2.9922 8.9531 5.8359 13.57 8.5273zm267.01-6.8516-4.5039-6.8867c4.4648-2.9219 8.8242-5.9922 13.082-9.1953l4.957 6.5859c-4.4062 3.3047-8.9141 6.4727-13.535 9.4961zm-294.43-11.645c-4.3633-3.3828-8.6172-6.8945-12.75-10.543l5.4531-6.1719c4 3.5352 8.1133 6.9336 12.332 10.203zm320.86-8.2188-5.3711-6.25c4.0547-3.4727 7.9922-7.0859 11.805-10.809l5.75 5.8906c-3.9336 3.8516-8.0039 7.5742-12.184 11.168zm-345.65-13.672c-3.8906-3.9023-7.6484-7.9414-11.285-12.086l6.1992-5.4141c3.5039 4.0156 7.1523 7.9258 10.914 11.699zm369.29-9.4375-6.125-5.4922c3.5742-3.9688 7.0117-8.0547 10.316-12.254l6.457 5.0977c-3.4141 4.3281-6.9688 8.5547-10.648 12.648zm-391.04-15.445c-3.3555-4.375-6.5625-8.8594-9.625-13.457l6.8477-4.5586c2.9609 4.4414 6.0664 8.7812 9.3008 13.008zm411.5-10.531-6.7812-4.6602c3.0195-4.4023 5.9062-8.8984 8.6406-13.484l7.0742 4.2109c-2.8281 4.7422-5.8164 9.3906-8.9336 13.934zm-429.86-16.953c-2.7539-4.7617-5.3555-9.6328-7.7969-14.582l7.375-3.6289c2.3633 4.7812 4.8789 9.4805 7.5391 14.094zm446.79-11.48-7.3359-3.7305c2.4258-4.75 4.6992-9.5742 6.8164-14.504l7.5586 3.2539c-2.1836 5.0859-4.5352 10.086-7.0391 14.98zm-461.41-18.137c-2.1055-5.0742-4.0547-10.242-5.8359-15.477l7.8008-2.6562c1.7188 5.0664 3.6016 10.062 5.6406 14.973zm474.49-12.258-7.7617-2.75c1.7812-5.0078 3.3945-10.102 4.8477-15.25l7.9258 2.2344c-1.4922 5.3203-3.1719 10.578-5.0117 15.766zm-485.14-19.055c-1.4102-5.293-2.6758-10.672-3.7539-16.109l8.0625-1.5898c1.0547 5.2461 2.2578 10.445 3.6406 15.574zm494.12-12.766-8.0547-1.7266c1.1094-5.1914 2.0508-10.445 2.8242-15.754l8.1484 1.1914c-0.80078 5.4844-1.7734 10.918-2.918 16.289zm-500.57-19.664c-0.72266-5.4805-1.2695-11.027-1.625-16.453l8.2148-0.53125c0.34766 5.3477 0.875 10.652 1.5742 15.91zm505.32-13.047-8.1992-0.66797c0.42578-5.2812 0.67578-10.613 0.76172-15.98l8.2305 0.125c-0.078124 5.5547-0.34766 11.059-0.79297 16.523zm-507.52-19.93v-0.54688c0-5.3633 0.15625-10.703 0.5-15.988l8.2148 0.53125c-0.32422 5.1055-0.48828 10.266-0.48828 15.457zm499.82-12.734c-0.26953-5.3594-0.69922-10.68-1.3047-15.941l8.1875-0.93359c0.61719 5.4414 1.0625 10.938 1.3281 16.477zm-489.61-19.219-8.1641-1.0469c0.71094-5.5 1.5742-10.953 2.6211-16.336l8.0859 1.5625c-1.0156 5.2188-1.8633 10.488-2.543 15.82zm485.97-12.566c-0.94531-5.2734-2.0703-10.484-3.3477-15.645l7.9844-1.9766c1.3281 5.3203 2.4805 10.719 3.4648 16.168zm-479.86-18.852-7.957-2.1016c1.418-5.3477 3-10.633 4.7383-15.848l7.8125 2.6055c-1.6914 5.0469-3.2266 10.16-4.5938 15.344zm472.15-12.18c-1.6367-5.0898-3.4336-10.125-5.3828-15.07l7.668-3.0195c2.0117 5.125 3.8594 10.316 5.5547 15.586zm-461.99-18.16-7.6172-3.1367c2.1055-5.1133 4.3555-10.152 6.7773-15.094l7.3906 3.6172c-2.3398 4.7852-4.5234 9.6562-6.5508 14.613zm450.27-11.586c-2.2734-4.8203-4.7031-9.5703-7.2812-14.223l7.1953-3.9883c2.6641 4.8047 5.168 9.7031 7.5273 14.707zm-15.473-27.949c-2.8906-4.5039-5.918-8.8867-9.0781-13.184l6.625-4.8906c3.2695 4.4414 6.4023 8.9727 9.3789 13.621zm-18.992-25.742c-3.4336-4.0781-7.0117-8.0469-10.707-11.898l5.9453-5.6953c3.8125 3.9688 7.5 8.0703 11.055 12.285zm-22.152-23.086c-3.9297-3.6055-7.9922-7.0781-12.152-10.422l5.1406-6.4102c4.3125 3.457 8.5 7.0391 12.57 10.762zm-24.965-20.031c-4.3555-3.0586-8.8359-5.9766-13.406-8.7578l4.2773-7.0234c4.7266 2.8672 9.3477 5.8906 13.859 9.043zm-27.355-16.637c-4.7266-2.457-9.5352-4.7773-14.441-6.9453l3.332-7.5195c5.0625 2.2305 10.035 4.625 14.926 7.168zm-201.67-11.543-2.9414-7.6836c5.1172-1.9805 10.383-3.7969 15.641-5.4219l2.4297 7.8555c-5.1172 1.6016-10.164 3.3438-15.129 5.25zm172.38-1.3828c-5.0117-1.8242-10.074-3.4883-15.215-5l2.3125-7.8906c5.3047 1.5391 10.543 3.2695 15.715 5.1562zm-141.82-8.0898-1.9141-8.0078c5.3438-1.2773 10.754-2.3867 16.211-3.3203l1.3828 8.1094c-5.2812 0.91016-10.512 1.9805-15.68 3.2188zm111.11-0.88672c-5.1914-1.1523-10.426-2.1445-15.727-2.9609l1.2539-8.1328c5.4766 0.85156 10.887 1.8711 16.258 3.0625zm-79.57-4.5195-0.84375-8.1797c5.4414-0.57031 10.941-0.96875 16.496-1.1914l0.32031 8.2266c-5.3789 0.21094-10.699 0.59766-15.973 1.1445zm47.957-0.375c-5.2852-0.46484-10.617-0.77344-15.977-0.89453l0.19141-8.2305c5.5508 0.13281 11.059 0.44922 16.504 0.92969z"/>
  <path d="m140.25 165.03-7.1172-4.1094c1.3945-2.4141 2.8242-4.8047 4.2969-7.168l6.9961 4.3438c-1.4297 2.293-2.8164 4.6055-4.1758 6.9336z"/>
  <path d="m216.14 69.832c5.5156-5.4531 13.727 2.8516 8.043 8.4375l-23.07 22.836 12.516 51.543-8.5273 8.4297-21.219-42.637-17.258 17.074 1.5273 13.203-6.7422 6.668-7.7891-15.012-14.926-7.9414 6.7539-6.6797 13.109 1.6016 17.258-17.078-42.414-21.688 8.5352-8.4375 50.961 12.656z"/>
  <use x="70" y="644" xlink:href="#v"/>
  <use x="90.550781" y="644" xlink:href="#c"/>
  <use x="104.359375" y="644" xlink:href="#a"/>
  <use x="123.347656" y="644" xlink:href="#d"/>
  <use x="142.242188" y="644" xlink:href="#b"/>
  <use x="155.628906" y="644" xlink:href="#a"/>
  <use x="174.617188" y="644" xlink:href="#l"/>
  <use x="204.410156" y="644" xlink:href="#k"/>
  <use x="224.453125" y="644" xlink:href="#j"/>
  <use x="252.453125" y="644" xlink:href="#f"/>
  <use x="269.117188" y="644" xlink:href="#b"/>
  <use x="282.5" y="644" xlink:href="#a"/>
  <use x="301.492188" y="644" xlink:href="#u"/>
  <use x="321.535156" y="644" xlink:href="#i"/>
  <use x="341.46875" y="644" xlink:href="#d"/>
  <use x="360.363281" y="644" xlink:href="#h"/>
  <use x="380.296875" y="644" xlink:href="#t"/>
  <use x="389.894531" y="644" xlink:href="#a"/>
  <use x="418.632812" y="644" xlink:href="#s"/>
  <use x="444.5" y="644" xlink:href="#d"/>
  <use x="463.394531" y="644" xlink:href="#g"/>
  <use x="483.328125" y="644" xlink:href="#b"/>
  <use x="496.710937" y="644" xlink:href="#a"/>
  <use x="515.703125" y="644" xlink:href="#c"/>
  <use x="529.511719" y="644" xlink:href="#f"/>
  <use x="70" y="672" xlink:href="#r"/>
  <use x="82.183594" y="672" xlink:href="#c"/>
  <use x="95.992188" y="672" xlink:href="#e"/>
  <use x="115.226562" y="672" xlink:href="#q"/>
  <use x="154.152344" y="672" xlink:href="#b"/>
  <use x="167.535156" y="672" xlink:href="#i"/>
  <use x="187.46875" y="672" xlink:href="#a"/>
  <use x="216.207031" y="672" xlink:href="#p"/>
  <use x="239.640625" y="672" xlink:href="#e"/>
  <use x="258.878906" y="672" xlink:href="#g"/>
  <use x="278.8125" y="672" xlink:href="#h"/>
  <use x="308.492188" y="672" xlink:href="#o"/>
  <use x="329.015625" y="672" xlink:href="#c"/>
  <use x="342.820312" y="672" xlink:href="#e"/>
  <use x="362.058594" y="672" xlink:href="#n"/>
  <use x="371.65625" y="672" xlink:href="#a"/>
  <use x="390.648438" y="672" xlink:href="#m"/>
  <use x="407.242188" y="672" xlink:href="#b"/>
 </g>
</svg>
